<svg xmlns="http://www.w3.org/2000/svg" viewBox="0 0 1302.5 335" height="335" width="1302.5"><path d="M49.1 225.057C53.483 123.07 138.007 41.239 241.053 41.239v67.893c-65.636 0-119.66 51.348-123.973 115.925H49.101" fill="#c8c7c7" fill-rule="evenodd"/><path d="M202.33 225.057c-6.03-23.378-18.99-44.03-36.547-59.593a124.646 124.646 0 00-22.984 36.357 77.726 77.726 0 0115.141 23.236h44.39" fill="#f47216" fill-rule="evenodd"/><path d="M252.82 225.057c-.482-36.398-17.396-68.948-43.64-90.558a124.88 124.88 0 00-31.874 19.795c-.034.052-.057.103-.091.161 20.755 17.796 35.359 42.56 40.125 70.602h35.48M204.74 28.174c-91.133 9.355-163.719 82.84-171.702 174.352H2.865C2.865 91.34 93.552.654 204.74.654v27.52m292.323 198.611v-96.061h25.243v75.135h69.26v20.926h-94.504m122.419-96.058v75.134c.959 7.868 0 21.69 25.115 20.928h57.577c9.258 0 25.27 0 25.27-20.928v-75.134h-25.27v75.134h-57.577v-75.134h-25.115m-232.166 55.689h34.763L404.99 154.2l-17.676 32.216zm-47.494 40.368l54.604-96.055h22.679l55.141 96.055h-28.11l-11.002-20.221h-56.638l-10.866 20.22H339.82m456.052-55.468h47.444c5.358 0 7.115-1.24 7.115-5.053v-10.537c0-5.428-3.864-5.428-7.115-5.428h-47.444v21.018zm-24.83 55.472v-96.062h79.39c16.848 0 24.274 5.704 24.274 19.573v21.017c0 12.188-5.381 19.475-24.275 19.475h-54.559v35.997h-24.83m157.983-55.472h47.441c5.36 0 7.123-1.24 7.123-5.053v-10.537c0-5.428-3.872-5.428-7.123-5.428h-47.441v21.018zm-24.832 55.472v-96.062h79.396c16.845 0 24.275 5.704 24.275 19.573v21.017c0 12.188-5.389 19.475-24.275 19.475h-6.743l43.848 35.997H984.71l-39.025-35.997h-16.66v35.997h-24.832m166.876-20.926h67.433v-54.953h-67.433v54.953zm-6.735-75.133h80.618c10.13 0 18.423 8.29 18.423 18.422v59.21c0 10.136-8.293 18.424-18.422 18.424h-80.62c-10.13 0-18.423-8.288-18.423-18.424v-59.21c0-10.131 8.294-18.422 18.424-18.422m140.901 96.057v-96.061h97.115v19.756h-71.979v20.834h38.841v20.336h-38.84v35.135h-25.137" fill="#656263" fill-rule="evenodd"/><path d="M14.271 321.421l9.579-18.193 9.58 18.193H14.27zM1.383 334.723h5.859l4.548-8.753h24.052l4.547 8.753h6.548l-19.78-35.56h-6.34l-19.434 35.56m84.127 0h32.873v-4.962H91.438v-30.598H85.51v35.56m74.475-35.56h-5.928v27.152c-.01 2.183.242 3.894.76 5.123.515 1.229 1.38 2.08 2.594 2.574 1.23.493 2.884.734 4.986.711h21.09c2.123.012 3.788-.23 4.996-.723 1.206-.506 2.055-1.367 2.548-2.597.504-1.228.748-2.927.725-5.088v-27.152h-5.858v30.598h-25.913v-30.598m82.129 6.341c.384 1.09.804 1.974 1.229 2.664.436.7.826 1.275 1.183 1.746l14.126 19.227h1.516l13.577-19.78c.275-.377.579-.883.941-1.515.357-.632.748-1.412 1.195-2.342-.068 1.308-.143 2.41-.185 3.285a35.86 35.86 0 00-.09 1.952v23.982h5.444v-35.56h-5.444l-16.126 23.155-17.299-23.155h-4.823v35.56h5.03v-23.982c0-.69-.01-1.481-.034-2.366a37.968 37.968 0 00-.24-2.87m84.538 29.215h5.926v-35.56h-5.925v35.56zm51.461.003h5.443v-20.951a85 85 0 00-.081-3.893 44.665 44.665 0 00-.333-3.893c.598.975 1.207 1.779 1.838 2.387a46.93 46.93 0 001.746 1.61l27.359 24.74h3.309v-35.56h-5.444v19.502a83.008 83.008 0 00.069 4.09 39.29 39.29 0 00.481 4.662 43.304 43.304 0 00-2.114-2.526 26.905 26.905 0 00-1.951-1.953l-26.601-23.775h-3.722v35.56m84.814-.003h5.927v-35.56h-5.927v35.56zm57.383-35.557h-5.926v27.152c-.013 2.183.242 3.894.758 5.123.518 1.229 1.379 2.08 2.597 2.574 1.228.493 2.882.734 4.985.711h21.087c2.125.012 3.79-.23 4.996-.723 1.207-.506 2.055-1.367 2.549-2.597.508-1.228.748-2.927.725-5.088v-27.152h-5.86v30.598h-25.911v-30.598m82.129 6.341c.39 1.09.805 1.974 1.228 2.664.436.7.828 1.275 1.184 1.746l14.127 19.227h1.518l13.574-19.78c.277-.377.586-.883.942-1.515a43.48 43.48 0 001.195-2.342c-.07 1.308-.137 2.41-.183 3.285a33.78 33.78 0 00-.093 1.952v23.982h5.445v-35.56h-5.445l-16.126 23.155-17.296-23.155h-4.825v35.56h5.03v-23.982c0-.69-.012-1.481-.034-2.366a35.01 35.01 0 00-.241-2.87m220.537-1.518v5.168l5.1-1.447v-.759c.011-2.033-.275-3.606-.839-4.743-.573-1.137-1.47-1.93-2.698-2.389-1.23-.46-2.825-.678-4.8-.656h-18.952c-2.103-.022-3.757.218-4.963.714-1.207.493-2.068 1.342-2.573 2.571-.506 1.23-.746 2.942-.735 5.124v3.1c-.011 2.184.229 3.895.735 5.124.505 1.229 1.366 2.079 2.573 2.572 1.206.495 2.86.735 4.963.713h22.327v10.68H796.65v-5.718l-5.514 1.309v.965c-.012 2.158.23 3.858.737 5.087.503 1.23 1.377 2.09 2.593 2.597 1.219.493 2.884.733 5.01.723h20.743c2.124.01 3.79-.23 4.996-.723 1.206-.507 2.055-1.368 2.549-2.597.507-1.23.747-2.929.725-5.087v-3.998c.022-2.125-.218-3.801-.701-5.03-.494-1.23-1.333-2.102-2.55-2.62-1.207-.516-2.872-.768-5.02-.757h-22.395v-9.923h25.152m61.59 30.736h5.928V319.08l17.847-19.916h-7.235l-13.301 15.85-13.919-15.85h-7.376l18.056 20.054v15.506m92.603-30.737v5.168l5.1-1.447v-.759c.01-2.033-.275-3.606-.84-4.743-.573-1.137-1.47-1.93-2.698-2.389-1.229-.46-2.826-.678-4.8-.656h-18.952c-2.103-.022-3.757.218-4.963.714-1.206.493-2.066 1.342-2.572 2.571-.507 1.23-.747 2.942-.735 5.124v3.1c-.012 2.184.228 3.895.735 5.124.506 1.229 1.366 2.079 2.572 2.572 1.206.495 2.86.735 4.963.713h22.327v10.68h-26.462v-5.718l-5.514 1.309v.965c-.011 2.158.229 3.858.735 5.087.505 1.23 1.379 2.09 2.595 2.597 1.219.493 2.884.733 5.009.723h20.743c2.124.01 3.79-.23 4.997-.723 1.206-.507 2.055-1.368 2.547-2.597.508-1.23.749-2.929.726-5.087v-3.998c.023-2.125-.218-3.801-.702-5.03-.494-1.23-1.331-2.102-2.549-2.62-1.206-.516-2.872-.768-5.019-.757h-22.396v-9.923h25.153m64.343 0h16.334v-4.826h-38.525v4.826h16.264v30.735h5.927v-30.735m53.39 30.736h34.528v-4.893h-28.6v-11.303h17.297v-4.685h-17.297v-9.924h28.325v-4.755H1094.9v35.56m80.476-29.219c.389 1.09.803 1.974 1.227 2.664.438.7.828 1.275 1.184 1.746l14.13 19.227h1.514l13.577-19.78c.275-.377.585-.883.94-1.515.358-.632.748-1.412 1.196-2.342-.069 1.308-.139 2.41-.184 3.285a34.678 34.678 0 00-.091 1.952v23.982h5.444v-35.56h-5.444l-16.126 23.155-17.3-23.155h-4.822v35.56h5.03v-23.982c0-.69-.012-1.481-.033-2.366a35.572 35.572 0 00-.242-2.87m114.861-1.518v5.168l5.1-1.447v-.759c.013-2.033-.275-3.606-.837-4.743-.575-1.137-1.475-1.93-2.7-2.389-1.238-.46-2.825-.678-4.8-.656h-18.95c-2.113-.022-3.763.218-4.963.714-1.212.493-2.075 1.342-2.575 2.571-.512 1.23-.75 2.942-.737 5.124v3.1c-.013 2.184.225 3.895.737 5.124.5 1.229 1.363 2.079 2.575 2.572 1.2.495 2.85.735 4.963.713h22.325v10.68h-26.463v-5.718l-5.512 1.309v.965c-.013 2.158.225 3.858.737 5.087.5 1.23 1.375 2.09 2.588 2.597 1.225.493 2.887.733 5.012.723h20.738c2.125.01 3.8-.23 5-.723 1.212-.507 2.062-1.368 2.55-2.597.5-1.23.75-2.929.725-5.087v-3.998c.025-2.125-.225-3.801-.7-5.03-.5-1.23-1.338-2.102-2.55-2.62-1.213-.516-2.875-.768-5.025-.757h-22.388v-9.923h25.15" fill="#656263"/><path d="M14.271 321.421l9.579-18.193 9.58 18.193H14.27zM1.383 334.723h5.859l4.548-8.753h24.052l4.547 8.753h6.548l-19.78-35.56h-6.34l-19.434 35.56zm84.127 0h32.873v-4.962H91.438v-30.598H85.51v35.56zm74.475-35.56h-5.928v27.152c-.01 2.183.242 3.894.76 5.123.515 1.229 1.38 2.08 2.594 2.574 1.23.493 2.884.734 4.986.711h21.09c2.123.012 3.788-.23 4.996-.723 1.206-.506 2.055-1.367 2.548-2.597.504-1.228.748-2.927.725-5.088v-27.152h-5.858v30.598h-25.913v-30.598zm82.129 6.341c.384 1.09.804 1.974 1.229 2.664.436.7.826 1.275 1.183 1.746l14.126 19.227h1.516l13.577-19.78c.275-.377.579-.883.941-1.515.357-.632.748-1.412 1.195-2.342-.068 1.308-.143 2.41-.185 3.285a35.86 35.86 0 00-.09 1.952v23.982h5.444v-35.56h-5.444l-16.126 23.155-17.299-23.155h-4.823v35.56h5.03v-23.982c0-.69-.01-1.481-.034-2.366a37.968 37.968 0 00-.24-2.87zm84.538 29.216h5.926v-35.56h-5.925v35.56zm51.461.003h5.443v-20.951a85 85 0 00-.081-3.893 44.665 44.665 0 00-.333-3.893c.598.975 1.207 1.779 1.838 2.387a46.93 46.93 0 001.746 1.61l27.359 24.74h3.309v-35.56h-5.444v19.502a83.008 83.008 0 00.069 4.09 39.29 39.29 0 00.481 4.662 43.304 43.304 0 00-2.114-2.526 26.905 26.905 0 00-1.951-1.953l-26.601-23.775h-3.722v35.56zm84.813-.003h5.927v-35.56h-5.927v35.56zm57.383-35.557h-5.926v27.152c-.013 2.183.242 3.894.758 5.123.518 1.229 1.379 2.08 2.597 2.574 1.228.493 2.882.734 4.985.711h21.087c2.125.012 3.79-.23 4.996-.723 1.207-.506 2.055-1.367 2.549-2.597.508-1.228.748-2.927.725-5.088v-27.152h-5.86v30.598h-25.911v-30.598zm82.129 6.341c.39 1.09.805 1.974 1.228 2.664.436.7.828 1.275 1.184 1.746l14.127 19.227h1.518l13.574-19.78c.277-.377.586-.883.942-1.515a43.48 43.48 0 001.195-2.342c-.07 1.308-.137 2.41-.183 3.285a33.78 33.78 0 00-.093 1.952v23.982h5.445v-35.56h-5.445l-16.126 23.155-17.296-23.155h-4.825v35.56h5.03v-23.982c0-.69-.012-1.481-.034-2.366a35.01 35.01 0 00-.241-2.87zm220.537-1.517v5.168l5.1-1.447v-.759c.011-2.033-.275-3.606-.839-4.743-.573-1.137-1.47-1.93-2.698-2.389-1.23-.46-2.825-.678-4.8-.656h-18.952c-2.103-.022-3.757.218-4.963.714-1.207.493-2.068 1.342-2.573 2.571-.506 1.23-.746 2.942-.735 5.124v3.1c-.011 2.184.229 3.895.735 5.124.505 1.229 1.366 2.079 2.573 2.572 1.206.495 2.86.735 4.963.713h22.327v10.68H796.65v-5.718l-5.514 1.309v.965c-.012 2.158.23 3.858.737 5.087.503 1.23 1.377 2.09 2.593 2.597 1.219.493 2.884.733 5.01.723h20.743c2.124.01 3.79-.23 4.996-.723 1.206-.507 2.055-1.368 2.549-2.597.507-1.23.747-2.929.725-5.087v-3.998c.022-2.125-.218-3.801-.701-5.03-.494-1.23-1.333-2.102-2.55-2.62-1.207-.516-2.872-.768-5.02-.757h-22.395v-9.923h25.152zm61.59 30.736h5.928V319.08l17.847-19.916h-7.235l-13.301 15.85-13.919-15.85h-7.376l18.056 20.054v15.506zm92.603-30.736v5.168l5.1-1.447v-.759c.01-2.033-.275-3.606-.84-4.743-.573-1.137-1.47-1.93-2.698-2.389-1.229-.46-2.826-.678-4.8-.656h-18.952c-2.103-.022-3.757.218-4.963.714-1.206.493-2.066 1.342-2.572 2.571-.507 1.23-.747 2.942-.735 5.124v3.1c-.012 2.184.228 3.895.735 5.124.506 1.229 1.366 2.079 2.572 2.572 1.206.495 2.86.735 4.963.713h22.327v10.68h-26.462v-5.718l-5.514 1.309v.965c-.011 2.158.229 3.858.735 5.087.505 1.23 1.379 2.09 2.595 2.597 1.219.493 2.884.733 5.009.723h20.743c2.124.01 3.79-.23 4.997-.723 1.206-.507 2.055-1.368 2.547-2.597.508-1.23.749-2.929.726-5.087v-3.998c.023-2.125-.218-3.801-.702-5.03-.494-1.23-1.331-2.102-2.549-2.62-1.206-.516-2.872-.768-5.019-.757h-22.396v-9.923h25.153zm64.343 0h16.334v-4.826h-38.525v4.826h16.264v30.735h5.927v-30.735zm53.39 30.736h34.528v-4.893h-28.6v-11.303h17.297v-4.685h-17.297v-9.924h28.325v-4.755H1094.9v35.56zm80.475-29.219c.389 1.09.803 1.974 1.227 2.664.438.7.828 1.275 1.184 1.746l14.13 19.227h1.514l13.577-19.78c.275-.377.585-.883.94-1.515.358-.632.748-1.412 1.196-2.342-.069 1.308-.139 2.41-.184 3.285a34.678 34.678 0 00-.091 1.952v23.982h5.444v-35.56h-5.444l-16.126 23.155-17.3-23.155h-4.822v35.56h5.03v-23.982c0-.69-.012-1.481-.033-2.366a35.572 35.572 0 00-.242-2.87zm114.861-1.517v5.168l5.1-1.447v-.759c.013-2.033-.275-3.606-.837-4.743-.575-1.137-1.475-1.93-2.7-2.389-1.238-.46-2.825-.678-4.8-.656h-18.95c-2.113-.022-3.763.218-4.963.714-1.212.493-2.075 1.342-2.575 2.571-.512 1.23-.75 2.942-.737 5.124v3.1c-.013 2.184.225 3.895.737 5.124.5 1.229 1.363 2.079 2.575 2.572 1.2.495 2.85.735 4.963.713h22.325v10.68h-26.463v-5.718l-5.512 1.309v.965c-.013 2.158.225 3.858.737 5.087.5 1.23 1.375 2.09 2.588 2.597 1.225.493 2.887.733 5.012.723h20.738c2.125.01 3.8-.23 5-.723 1.212-.507 2.062-1.368 2.55-2.597.5-1.23.75-2.929.725-5.087v-3.998c.025-2.125-.225-3.801-.7-5.03-.5-1.23-1.338-2.102-2.55-2.62-1.213-.516-2.875-.768-5.025-.757h-22.388v-9.923h25.15z" fill="none" stroke="#656263" stroke-width=".313" stroke-miterlimit="22.926"/></svg>