<svg width="30" height="30" viewBox="0 0 30 30" fill="none" xmlns="http://www.w3.org/2000/svg">
<path d="M15.0138 6.2749C10.2164 6.2749 6.31348 10.1779 6.31348 14.9752C6.31348 16.6468 6.78856 18.2701 7.68725 19.6695L7.90323 20.0058L7.05701 23.0114L10.1666 22.2109L10.4873 22.4068C11.8469 23.2368 13.4122 23.6756 15.0138 23.6756C19.8112 23.6756 23.7141 19.7726 23.7141 14.9752C23.7141 10.1779 19.8112 6.2749 15.0138 6.2749ZM20.3489 17.6492L20.2404 18.1563C20.1179 18.7283 19.7782 19.2343 19.2853 19.5496C18.6631 19.9476 17.8565 20.1431 16.8313 19.8532C13.6496 18.9535 11.8502 16.847 10.8848 15.5304C9.91929 14.2139 9.5463 12.8973 9.78763 11.8221C9.9495 11.101 10.4765 10.5478 10.8061 10.2615C10.9676 10.1213 11.1771 10.0499 11.3906 10.0615L12.0704 10.0986C12.2043 10.1059 12.3224 10.1886 12.3751 10.3119L13.3655 12.6291C13.4185 12.7529 13.3961 12.896 13.3081 12.9979L12.446 13.9952C12.3761 14.076 12.364 14.1912 12.4132 14.2861C13.5486 16.4732 15.6178 17.3398 16.2356 17.5569C16.3408 17.5939 16.4575 17.5589 16.5257 17.4705L17.4277 16.3011C17.5281 16.1711 17.7049 16.1276 17.8541 16.1964L20.1518 17.2555C20.3016 17.3246 20.3834 17.4881 20.3489 17.6492Z" fill="#26D367"/>
<path d="M5 0C2.23858 0 0 2.23858 0 5V25C0 27.7614 2.23858 30 5 30H25C27.7614 30 30 27.7614 30 25V5C30 2.23858 27.7614 0 25 0H5ZM15.0135 25.4528C13.2133 25.4528 11.4506 24.992 9.89116 24.1171L4.50884 25.5025L5.97833 20.2834C5.03336 18.6781 4.53583 16.8515 4.53583 14.9752C4.53583 9.19773 9.23611 4.49746 15.0135 4.49746C20.791 4.49746 25.4912 9.19773 25.4912 14.9752C25.4912 20.7526 20.791 25.4528 15.0135 25.4528Z" fill="#26D367"/>
</svg>
