<svg width="40" height="40" viewBox="0 0 40 40" fill="none" xmlns="http://www.w3.org/2000/svg">
<path d="M26.6666 2.66675H28V4.00008H26.6666V2.66675Z" fill="#F2F2F2"/>
<path d="M19.7877 6.0686L20.7305 5.12578L21.6733 6.0686L20.7305 7.01143L19.7877 6.0686Z" fill="#F2F2F2"/>
<path d="M35.9667 24.2895L29.646 27.9395C29.3264 27.6246 28.9314 27.397 28.4987 27.2781L19.4174 24.8448C18.9415 24.7178 18.4434 24.6973 17.9587 24.7848L12 25.8668V24.6668C12 24.49 11.9298 24.3204 11.8048 24.1954C11.6797 24.0704 11.5102 24.0001 11.3333 24.0001H4.66667C4.48986 24.0001 4.32029 24.0704 4.19527 24.1954C4.07024 24.3204 4.00001 24.49 4.00001 24.6668V25.3335H0.666668C0.489856 25.3335 0.320287 25.4037 0.195262 25.5287C0.070238 25.6537 0 25.8233 0 26.0001V38.0001C0 38.177 0.070238 38.3465 0.195262 38.4715C0.320287 38.5966 0.489856 38.6668 0.666668 38.6668H4.00001V39.3335C4.00001 39.5103 4.07024 39.6799 4.19527 39.8049C4.32029 39.9299 4.48986 40.0001 4.66667 40.0001H11.3333C11.5102 40.0001 11.6797 39.9299 11.8048 39.8049C11.9298 39.6799 12 39.5103 12 39.3335V37.4115L22.316 38.5581C23.079 38.642 23.8476 38.4607 24.4927 38.0448L38.6334 28.9115C39.0407 28.6793 39.3789 28.3429 39.6132 27.9368C39.8475 27.5308 39.9695 27.0696 39.9667 26.6008C39.9669 26.1326 39.8439 25.6726 39.6099 25.267C39.376 24.8615 39.0394 24.5246 38.6339 24.2904C38.2285 24.0562 37.7686 23.9329 37.3004 23.9329C36.8322 23.9328 36.3722 24.056 35.9667 24.2901V24.2895ZM1.33334 37.3335V26.6668H4.00001V37.3335H1.33334ZM10.6667 38.6668H5.33334V25.3335H10.6667V38.6668ZM37.9381 27.7735L23.7687 36.9248C23.3814 37.1737 22.9204 37.2824 22.4627 37.2328L12 36.0701V27.2235L18.2 26.0968C18.4906 26.0434 18.7894 26.0555 19.0747 26.1321L28.156 28.5655C28.4976 28.6571 28.7889 28.8806 28.9656 29.1869C29.1424 29.4932 29.1903 29.8572 29.0987 30.1988C29.0071 30.5404 28.7836 30.8316 28.4773 31.0084C28.171 31.1852 27.807 31.2331 27.4654 31.1415L20.8394 29.3668C20.754 29.3414 20.6644 29.3334 20.5759 29.3432C20.4874 29.353 20.4017 29.3804 20.324 29.4239C20.2462 29.4674 20.178 29.526 20.1233 29.5963C20.0686 29.6665 20.0285 29.7471 20.0054 29.8331C19.9823 29.9191 19.9767 30.0089 19.9889 30.0971C20.0011 30.1853 20.0309 30.2702 20.0764 30.3467C20.122 30.4233 20.1824 30.4899 20.2541 30.5427C20.3258 30.5955 20.4074 30.6334 20.494 30.6541L27.118 32.4295C27.4564 32.5202 27.8093 32.5434 28.1566 32.4977C28.5038 32.452 28.8387 32.3384 29.1421 32.1632C29.4454 31.9881 29.7113 31.7549 29.9245 31.477C30.1378 31.199 30.2941 30.8818 30.3847 30.5435C30.5127 30.0599 30.5009 29.5499 30.3507 29.0728L36.6307 25.4461C36.7835 25.3602 36.9518 25.3053 37.1258 25.2844C37.2999 25.2636 37.4763 25.2772 37.6451 25.3245C37.8139 25.3718 37.9717 25.4519 38.1095 25.5603C38.2474 25.6686 38.3625 25.803 38.4484 25.9558C38.5343 26.1086 38.5892 26.2768 38.6101 26.4509C38.6309 26.6249 38.6173 26.8014 38.57 26.9702C38.5227 27.139 38.4426 27.2968 38.3343 27.4346C38.2259 27.5724 38.0915 27.6876 37.9387 27.7735H37.9381Z" fill="#F2F2F2"/>
<path d="M39.3333 9.33334H36.0527C35.9927 9.17668 35.928 9.01934 35.8567 8.86001L38.178 6.53801C38.303 6.41299 38.3732 6.24345 38.3732 6.06667C38.3732 5.8899 38.303 5.72036 38.178 5.59534L34.4046 1.822C34.2796 1.69702 34.1101 1.62681 33.9333 1.62681C33.7565 1.62681 33.587 1.69702 33.462 1.822L31.1406 4.14334C30.9813 4.072 30.8233 4.01 30.6666 3.94734V0.666667C30.6666 0.489856 30.5964 0.320287 30.4714 0.195262C30.3464 0.0702379 30.1768 0 30 0H24.6666C24.4898 0 24.3203 0.0702379 24.1952 0.195262C24.0702 0.320287 24 0.489856 24 0.666667V3.94734C23.8433 4.00734 23.6853 4.072 23.526 4.14334L21.2046 1.822C21.0796 1.69702 20.9101 1.62681 20.7333 1.62681C20.5565 1.62681 20.387 1.69702 20.262 1.822L16.4886 5.59534C16.3636 5.72036 16.2934 5.8899 16.2934 6.06667C16.2934 6.24345 16.3636 6.41299 16.4886 6.53801L18.81 8.85934C18.7386 9.01868 18.6766 9.17668 18.614 9.33334H15.3333C15.1565 9.33334 14.9869 9.40358 14.8619 9.52861C14.7369 9.65363 14.6666 9.8232 14.6666 10V15.3334C14.6666 15.5102 14.7369 15.6797 14.8619 15.8048C14.9869 15.9298 15.1565 16 15.3333 16H18.614C18.674 16.1567 18.7386 16.3147 18.81 16.474L16.4886 18.7954C16.3636 18.9204 16.2934 19.0899 16.2934 19.2667C16.2934 19.4435 16.3636 19.613 16.4886 19.738L20.262 23.5114C20.387 23.6363 20.5565 23.7066 20.7333 23.7066C20.9101 23.7066 21.0796 23.6363 21.2046 23.5114L23.526 21.19C23.6853 21.2614 23.8433 21.3234 24 21.386V24.6667C24 24.8435 24.0702 25.0131 24.1952 25.1381C24.3203 25.2631 24.4898 25.3334 24.6666 25.3334H30C30.1768 25.3334 30.3464 25.2631 30.4714 25.1381C30.5964 25.0131 30.6666 24.8435 30.6666 24.6667V21.386C30.8233 21.326 30.9813 21.2614 31.1406 21.19L33.462 23.5114C33.5894 23.6318 33.758 23.6989 33.9333 23.6989C34.1086 23.6989 34.2773 23.6318 34.4046 23.5114L38.178 19.738C38.303 19.613 38.3732 19.4435 38.3732 19.2667C38.3732 19.0899 38.303 18.9204 38.178 18.7954L35.8567 16.4734C35.928 16.314 35.99 16.1567 36.0527 16H39.3333C39.5101 16 39.6797 15.9298 39.8047 15.8048C39.9298 15.6797 40 15.5102 40 15.3334V10C40 9.8232 39.9298 9.65363 39.8047 9.52861C39.6797 9.40358 39.5101 9.33334 39.3333 9.33334ZM38.6667 14.6667H35.58C35.4382 14.6668 35.3002 14.7121 35.186 14.7961C35.0717 14.88 34.9872 14.9981 34.9447 15.1334C34.8132 15.5401 34.6503 15.936 34.4573 16.3174C34.3948 16.4425 34.3731 16.5841 34.3955 16.7221C34.4179 16.8602 34.4831 16.9877 34.582 17.0867L36.764 19.2667L33.9333 22.0974L31.7513 19.9154C31.6524 19.8165 31.5248 19.7513 31.3868 19.7289C31.2487 19.7065 31.1071 19.7281 30.982 19.7907C30.6006 19.9837 30.2047 20.1466 29.798 20.278C29.6627 20.3206 29.5446 20.4051 29.4607 20.5193C29.3768 20.6336 29.3314 20.7716 29.3313 20.9134V24H25.3333V20.9134C25.3332 20.7716 25.2879 20.6336 25.2039 20.5193C25.12 20.4051 25.0019 20.3206 24.8666 20.278C24.4599 20.1466 24.064 19.9837 23.6826 19.7907C23.5575 19.7281 23.4159 19.7065 23.2779 19.7289C23.1398 19.7513 23.0123 19.8165 22.9133 19.9154L20.7333 22.0974L17.9026 19.2667L20.0846 17.0847C20.1835 16.9857 20.2487 16.8582 20.2711 16.7201C20.2935 16.5821 20.2719 16.4405 20.2093 16.3154C20.0163 15.934 19.8534 15.5381 19.722 15.1314C19.6794 14.9961 19.5949 14.878 19.4807 14.7941C19.3664 14.7101 19.2284 14.6648 19.0866 14.6647H16V10.6667H19.0866C19.2284 10.6665 19.3664 10.6212 19.4807 10.5373C19.5949 10.4534 19.6794 10.3352 19.722 10.2C19.8534 9.79327 20.0163 9.3974 20.2093 9.01601C20.2719 8.89091 20.2935 8.7493 20.2711 8.61123C20.2487 8.47316 20.1835 8.34562 20.0846 8.24668L17.9026 6.06667L20.7333 3.236L22.9153 5.41801C23.0143 5.51686 23.1418 5.5821 23.2799 5.60447C23.4179 5.62684 23.5595 5.60523 23.6846 5.54267C24.0654 5.34977 24.4606 5.18683 24.8666 5.05534C25.0019 5.01281 25.12 4.92829 25.2039 4.81404C25.2879 4.69979 25.3332 4.56176 25.3333 4.42001V1.33333H29.3333V4.42001C29.3334 4.56176 29.3788 4.69979 29.4627 4.81404C29.5466 4.92829 29.6648 5.01281 29.8 5.05534C30.2067 5.18674 30.6026 5.34967 30.984 5.54267C31.1091 5.60523 31.2507 5.62684 31.3888 5.60447C31.5268 5.5821 31.6544 5.51686 31.7533 5.41801L33.9333 3.236L36.764 6.06667L34.582 8.24868C34.4831 8.34762 34.4179 8.47516 34.3955 8.61323C34.3731 8.7513 34.3948 8.89291 34.4573 9.01801C34.6503 9.3994 34.8132 9.79527 34.9447 10.202C34.9872 10.3372 35.0717 10.4554 35.186 10.5393C35.3002 10.6232 35.4382 10.6685 35.58 10.6687H38.6667V14.6667Z" fill="#F2F2F2"/>
<path d="M27.3333 7.33325C26.2785 7.33325 25.2474 7.64605 24.3703 8.23208C23.4932 8.81812 22.8096 9.65107 22.406 10.6256C22.0023 11.6002 21.8967 12.6725 22.1025 13.7071C22.3083 14.7416 22.8162 15.6919 23.5621 16.4378C24.308 17.1837 25.2583 17.6917 26.2929 17.8975C27.3274 18.1032 28.3998 17.9976 29.3743 17.594C30.3489 17.1903 31.1818 16.5067 31.7679 15.6296C32.3539 14.7526 32.6667 13.7214 32.6667 12.6666C32.6651 11.2526 32.1027 9.89696 31.1028 8.8971C30.103 7.89725 28.7473 7.33484 27.3333 7.33325ZM27.3333 16.6666C26.5422 16.6666 25.7689 16.432 25.1111 15.9925C24.4533 15.5529 23.9406 14.9282 23.6378 14.1973C23.3351 13.4664 23.2559 12.6622 23.4102 11.8862C23.5645 11.1103 23.9455 10.3976 24.5049 9.83816C25.0643 9.27875 25.7771 8.89779 26.553 8.74345C27.3289 8.5891 28.1332 8.66832 28.8641 8.97107C29.595 9.27382 30.2197 9.78651 30.6592 10.4443C31.0988 11.1021 31.3334 11.8755 31.3334 12.6666C31.3323 13.7271 30.9105 14.7439 30.1606 15.4939C29.4107 16.2438 28.3939 16.6655 27.3333 16.6666Z" fill="#F2F2F2"/>
<path d="M8 38C8.39557 38 8.78225 37.8827 9.11114 37.6629C9.44004 37.4432 9.69639 37.1308 9.84776 36.7654C9.99914 36.3999 10.0387 35.9978 9.96158 35.6098C9.8844 35.2219 9.69392 34.8655 9.41422 34.5858C9.13451 34.3061 8.77815 34.1156 8.39018 34.0384C8.00222 33.9613 7.60009 34.0009 7.23463 34.1522C6.86918 34.3036 6.55682 34.56 6.33706 34.8889C6.1173 35.2178 6 35.6044 6 36C6 36.5304 6.21071 37.0391 6.58579 37.4142C6.96086 37.7893 7.46957 38 8 38ZM8 35.3333C8.13186 35.3333 8.26075 35.3724 8.37038 35.4457C8.48002 35.5189 8.56546 35.6231 8.61592 35.7449C8.66638 35.8667 8.67958 36.0007 8.65386 36.1301C8.62814 36.2594 8.56464 36.3782 8.47141 36.4714C8.37817 36.5646 8.25938 36.6281 8.13006 36.6539C8.00074 36.6796 7.8667 36.6664 7.74488 36.6159C7.62306 36.5655 7.51894 36.48 7.44569 36.3704C7.37243 36.2607 7.33333 36.1319 7.33333 36C7.33333 35.8232 7.40357 35.6536 7.5286 35.5286C7.65362 35.4036 7.82319 35.3333 8 35.3333Z" fill="#F2F2F2"/>
<path d="M17.3334 12H18.6667V13.3333H17.3334V12Z" fill="#F2F2F2"/>
<path d="M19.7877 19.2666L20.7305 18.3238L21.6733 19.2666L20.7305 20.2094L19.7877 19.2666Z" fill="#F2F2F2"/>
<path d="M26.6666 21.3333H28V22.6665H26.6666V21.3333Z" fill="#F2F2F2"/>
<path d="M32.9857 19.2678L33.9285 18.3251L34.8713 19.2678L33.9285 20.2106L32.9857 19.2678Z" fill="#F2F2F2"/>
<path d="M36 12H37.3333V13.3333H36V12Z" fill="#F2F2F2"/>
<path d="M32.9869 6.07007L33.9297 5.12727L34.8726 6.07007L33.9297 7.01287L32.9869 6.07007Z" fill="#F2F2F2"/>
</svg>
