<svg width="40" height="40" viewBox="0 0 40 40" fill="none" xmlns="http://www.w3.org/2000/svg">
<path d="M7.07349 12.2108C7.15092 12.2158 7.22661 12.2359 7.29624 12.2702C7.36587 12.3044 7.42807 12.352 7.4793 12.4103C7.53052 12.4686 7.56976 12.5364 7.59478 12.6098C7.6198 12.6833 7.63011 12.7609 7.62512 12.8384L7.46611 15.3099C7.45651 15.4596 7.39032 15.6 7.28097 15.7026C7.17162 15.8052 7.02732 15.8624 6.87735 15.8625H6.83853C6.76111 15.8575 6.68544 15.8374 6.61583 15.8031C6.54622 15.7689 6.48403 15.7213 6.43284 15.663C6.38164 15.6047 6.34243 15.5369 6.31745 15.4634C6.29246 15.39 6.2822 15.3124 6.28724 15.2349L6.44591 12.7634C6.45641 12.6071 6.52828 12.4613 6.64584 12.3578C6.7634 12.2543 6.91713 12.2014 7.07349 12.2108Z" fill="#E0E0E0"/>
<path d="M18.1151 9.11064C18.2259 8.99993 18.3761 8.93774 18.5327 8.93774C18.6893 8.93774 18.8395 8.99993 18.9503 9.11064L35.5315 25.6919C35.6423 25.8027 35.7045 25.953 35.7045 26.1097C35.7045 26.2663 35.6423 26.4166 35.5315 26.5274L26.5272 35.5317C26.4164 35.6424 26.2661 35.7045 26.1095 35.7045C25.9528 35.7045 25.8026 35.6424 25.6917 35.5317L9.11044 18.9515C9.05553 18.8967 9.01197 18.8315 8.98225 18.7598C8.95253 18.6882 8.93724 18.6113 8.93724 18.5337C8.93724 18.4561 8.95253 18.3793 8.98225 18.3076C9.01197 18.2359 9.05553 18.1708 9.11044 18.116L18.1151 9.11064ZM26.1083 34.2783L34.2781 26.1085L18.5327 10.3641L10.3629 18.5339L26.1083 34.2783Z" fill="#E0E0E0"/>
<path d="M0.536301 0.535678C1.78844 -0.711394 4.66643 0.283495 7.23214 2.84921C7.7935 3.40986 8.30204 4.02101 8.75131 4.67492L17.9379 4.0848C18.0218 4.07891 18.1059 4.09122 18.1846 4.12088C18.2632 4.15054 18.3346 4.19685 18.3937 4.25664L39.8268 25.6908C39.8817 25.7456 39.9253 25.8107 39.955 25.8824C39.9847 25.954 40 26.0308 40 26.1084C40 26.186 39.9847 26.2628 39.955 26.3345C39.9253 26.4061 39.8817 26.4712 39.8268 26.526L26.5256 39.8272C26.4147 39.9379 26.2645 40 26.1079 40C25.9512 40 25.801 39.9379 25.6901 39.8272L4.25625 18.393C4.19695 18.3336 4.15096 18.2622 4.12133 18.1836C4.09171 18.1051 4.07912 18.0211 4.08442 17.9373L4.67453 8.75474C4.02069 8.30474 3.40956 7.79564 2.84882 7.23388C0.281757 4.66715 -0.711781 1.78883 0.536301 0.535678ZM9.43055 8.83542C9.36148 8.76629 9.27059 8.72325 9.17334 8.71364C9.0761 8.70402 8.97853 8.72843 8.89726 8.78269C8.81599 8.83696 8.75605 8.91772 8.72766 9.01123C8.69928 9.10473 8.70419 9.20519 8.74157 9.29547C8.77895 9.38576 8.84649 9.46029 8.93266 9.50636C9.01884 9.55243 9.11833 9.5672 9.21417 9.54813C9.31001 9.52907 9.39628 9.47736 9.45827 9.40182C9.52025 9.32628 9.55413 9.23158 9.55411 9.13386C9.55418 9.07843 9.54329 9.02353 9.52209 8.97232C9.50089 8.92111 9.46978 8.87458 9.43055 8.83542ZM26.1077 38.5744L38.5737 26.1084L17.7465 5.28123L9.43663 5.81497C9.77958 6.44192 9.99603 7.13014 10.0737 7.84053C10.2615 7.97591 10.4176 8.15051 10.5312 8.35223C10.6448 8.55396 10.7132 8.77798 10.7316 9.00876C10.75 9.23954 10.718 9.47157 10.6378 9.68875C10.5576 9.90592 10.4311 10.1031 10.2671 10.2665C9.96603 10.5666 9.55825 10.7351 9.13313 10.7351C8.70802 10.7351 8.30024 10.5666 7.99915 10.2665C7.7927 10.0604 7.64644 9.80181 7.57618 9.51867C7.50591 9.23553 7.51429 8.93859 7.60042 8.65987C7.68655 8.38115 7.84716 8.13124 8.06492 7.93711C8.28267 7.74298 8.54931 7.612 8.83605 7.55831C8.68899 6.97204 8.45249 6.41193 8.13487 5.89768L6.03301 6.03272L5.28051 17.7472L26.1077 38.5744ZM4.76399 7.35474L4.88688 5.43923C4.89617 5.29598 4.95727 5.161 5.05877 5.0595C5.16028 4.95799 5.29525 4.89689 5.4385 4.8876L7.35401 4.76472C7.05645 4.38606 6.73675 4.02533 6.3966 3.68442C4.12526 1.41342 1.94036 0.806428 1.37185 1.37122C0.803341 1.93602 1.41236 4.12565 3.68403 6.39732C4.02484 6.73746 4.38546 7.05715 4.76399 7.35474Z" fill="#E0E0E0"/>
<path d="M20.3934 20.6281C20.6944 20.9124 20.9038 21.28 20.9947 21.684C21.0857 22.0879 21.054 22.5098 20.9038 22.8956C20.7536 23.2815 20.4917 23.6137 20.1516 23.8499C19.8116 24.086 19.4087 24.2154 18.9947 24.2213C18.5807 24.2272 18.1744 24.1095 17.8277 23.8832C17.4809 23.6568 17.2096 23.3322 17.0485 22.9508C16.8873 22.5694 16.8436 22.1486 16.9229 21.7423C17.0022 21.3359 17.201 20.9624 17.4938 20.6697C17.6777 20.4703 17.9004 20.3105 18.1481 20.1999C18.3958 20.0893 18.6634 20.0302 18.9347 20.0263C19.2059 20.0224 19.4751 20.0738 19.7259 20.1773C19.9767 20.2807 20.2038 20.4341 20.3934 20.6281ZM18.1788 22.8424C18.5383 23.2016 19.098 23.1601 19.5409 22.7172C20.0007 22.2574 20.0426 21.7142 19.676 21.3469C19.3333 21.0039 18.7645 21.0373 18.3141 21.4887C17.8638 21.94 17.8196 22.4832 18.1788 22.8424Z" fill="#E0E0E0"/>
<path d="M23.4779 17.9291L21.7312 27.6639L20.8457 26.7781L22.5921 17.0432L23.4779 17.9291Z" fill="#E0E0E0"/>
<path d="M26.8447 21.1796C27.2158 21.5724 27.4194 22.0941 27.4126 22.6344C27.4057 23.1747 27.1889 23.6912 26.808 24.0744C26.4271 24.4577 25.912 24.6777 25.3717 24.6879C24.8315 24.6981 24.3085 24.4977 23.9134 24.1291C23.5423 23.7363 23.3387 23.2145 23.3455 22.6742C23.3524 22.1339 23.5692 21.6175 23.9501 21.2342C24.331 20.851 24.8461 20.6309 25.3863 20.6207C25.9266 20.6105 26.4496 20.8109 26.8447 21.1796ZM24.6223 23.4023C24.965 23.7449 25.5338 23.7115 25.9842 23.2605C26.4345 22.8095 26.4771 22.2659 26.1263 21.9152C25.7671 21.5556 25.2074 21.5975 24.7644 22.0404C24.3046 22.4999 24.2709 23.0515 24.6223 23.4023Z" fill="#E0E0E0"/>
</svg>
