<svg width="41" height="40" viewBox="0 0 41 40" fill="none" xmlns="http://www.w3.org/2000/svg">
<path d="M33.3361 6.66322C33.7317 6.66322 34.1184 6.54591 34.4474 6.32613C34.7763 6.10635 35.0327 5.79396 35.1841 5.42847C35.3355 5.06298 35.3751 4.66081 35.2979 4.27281C35.2207 3.88482 35.0302 3.52842 34.7505 3.24868C34.4707 2.96895 34.1143 2.77845 33.7263 2.70128C33.3383 2.6241 32.9362 2.66371 32.5707 2.8151C32.2052 2.96649 31.8928 3.22286 31.673 3.55179C31.4532 3.88072 31.3359 4.26743 31.3359 4.66303C31.3359 5.19352 31.5467 5.70227 31.9218 6.07738C32.2969 6.45249 32.8056 6.66322 33.3361 6.66322ZM33.3361 3.9963C33.468 3.9963 33.5969 4.03541 33.7065 4.10867C33.8162 4.18193 33.9016 4.28606 33.9521 4.40789C34.0026 4.52971 34.0158 4.66377 33.99 4.7931C33.9643 4.92244 33.9008 5.04124 33.8076 5.13448C33.7143 5.22773 33.5955 5.29123 33.4662 5.31695C33.3369 5.34268 33.2028 5.32947 33.081 5.27901C32.9592 5.22855 32.855 5.14309 32.7818 5.03345C32.7085 4.9238 32.6694 4.7949 32.6694 4.66303C32.6694 4.4862 32.7396 4.31662 32.8647 4.19158C32.9897 4.06655 33.1593 3.9963 33.3361 3.9963Z" fill="#F2F2F2"/>
<path d="M12.6682 6.66322C13.0638 6.66322 13.4505 6.54591 13.7794 6.32613C14.1083 6.10635 14.3647 5.79396 14.5161 5.42847C14.6675 5.06298 14.7071 4.66081 14.6299 4.27281C14.5527 3.88482 14.3622 3.52842 14.0825 3.24868C13.8028 2.96895 13.4464 2.77845 13.0584 2.70128C12.6704 2.6241 12.2682 2.66371 11.9027 2.8151C11.5372 2.96649 11.2248 3.22286 11.0051 3.55179C10.7853 3.88072 10.668 4.26743 10.668 4.66303C10.668 5.19352 10.8787 5.70227 11.2538 6.07738C11.6289 6.45249 12.1377 6.66322 12.6682 6.66322ZM12.6682 3.9963C12.8 3.9963 12.9289 4.03541 13.0386 4.10867C13.1482 4.18193 13.2337 4.28606 13.2841 4.40789C13.3346 4.52971 13.3478 4.66377 13.3221 4.7931C13.2964 4.92244 13.2329 5.04124 13.1396 5.13448C13.0464 5.22773 12.9276 5.29123 12.7982 5.31695C12.6689 5.34268 12.5348 5.32947 12.413 5.27901C12.2912 5.22855 12.1871 5.14309 12.1138 5.03345C12.0405 4.9238 12.0014 4.7949 12.0014 4.66303C12.0014 4.4862 12.0717 4.31662 12.1967 4.19158C12.3217 4.06655 12.4913 3.9963 12.6682 3.9963Z" fill="#F2F2F2"/>
<path d="M24.669 19.998H24.0023V18.3311C24.0023 17.8891 23.8267 17.4651 23.5141 17.1525C23.2015 16.8399 22.7775 16.6643 22.3354 16.6643C21.8934 16.6643 21.4694 16.8399 21.1568 17.1525C20.8442 17.4651 20.6686 17.8891 20.6686 18.3311V19.998H4.66711V18.3311C4.66711 17.8891 4.4915 17.4651 4.17891 17.1525C3.86632 16.8399 3.44235 16.6643 3.00028 16.6643C2.55821 16.6643 2.13425 16.8399 1.82166 17.1525C1.50907 17.4651 1.33346 17.8891 1.33346 18.3311V19.998H0.66673C0.489902 19.998 0.320317 20.0682 0.195281 20.1932C0.0702445 20.3183 0 20.4879 0 20.6647V39.3331C0 39.51 0.0702445 39.6795 0.195281 39.8046C0.320317 39.9296 0.489902 39.9999 0.66673 39.9999H24.669C24.8458 39.9999 25.0154 39.9296 25.1405 39.8046C25.2655 39.6795 25.3357 39.51 25.3357 39.3331V20.6647C25.3357 20.4879 25.2655 20.3183 25.1405 20.1932C25.0154 20.0682 24.8458 19.998 24.669 19.998ZM22.0021 18.3311C22.0021 18.2427 22.0372 18.1579 22.0997 18.0954C22.1622 18.0329 22.247 17.9978 22.3354 17.9978C22.4239 17.9978 22.5087 18.0329 22.5712 18.0954C22.6337 18.1579 22.6688 18.2427 22.6688 18.3311V19.998H22.0021V18.3311ZM2.66692 18.3311C2.66692 18.2427 2.70204 18.1579 2.76456 18.0954C2.82708 18.0329 2.91187 17.9978 3.00028 17.9978C3.0887 17.9978 3.17349 18.0329 3.23601 18.0954C3.29853 18.1579 3.33365 18.2427 3.33365 18.3311V19.998H2.66692V18.3311ZM24.0023 21.3314V22.6649H1.33346V21.3314H24.0023ZM24.0023 23.9983V35.9995H1.33346V23.9983H24.0023ZM1.33346 38.6664V37.3329H24.0023V38.6664H1.33346Z" fill="#F2F2F2"/>
<path d="M7.33353 34.666C7.86402 34.666 8.37277 34.4553 8.74788 34.0802C9.12299 33.7051 9.33372 33.1963 9.33372 32.6658V27.332C9.33372 26.8015 9.12299 26.2927 8.74788 25.9176C8.37277 25.5425 7.86402 25.3318 7.33353 25.3318C6.80305 25.3318 6.29429 25.5425 5.91919 25.9176C5.54408 26.2927 5.33334 26.8015 5.33334 27.332V32.6658C5.33334 33.1963 5.54408 33.7051 5.91919 34.0802C6.29429 34.4553 6.80305 34.666 7.33353 34.666ZM6.6668 27.332C6.6668 27.1551 6.73705 26.9856 6.86208 26.8605C6.98712 26.7355 7.15671 26.6652 7.33353 26.6652C7.51036 26.6652 7.67995 26.7355 7.80498 26.8605C7.93002 26.9856 8.00026 27.1551 8.00026 27.332V32.6658C8.00026 32.8426 7.93002 33.0122 7.80498 33.1373C7.67995 33.2623 7.51036 33.3325 7.33353 33.3325C7.15671 33.3325 6.98712 33.2623 6.86208 33.1373C6.73705 33.0122 6.6668 32.8426 6.6668 32.6658V27.332Z" fill="#F2F2F2"/>
<path d="M12.6682 34.666C13.1986 34.666 13.7074 34.4553 14.0825 34.0802C14.4576 33.7051 14.6683 33.1963 14.6683 32.6658V27.332C14.6683 26.8015 14.4576 26.2927 14.0825 25.9176C13.7074 25.5425 13.1986 25.3318 12.6682 25.3318C12.1377 25.3318 11.6289 25.5425 11.2538 25.9176C10.8787 26.2927 10.668 26.8015 10.668 27.332V32.6658C10.668 33.1963 10.8787 33.7051 11.2538 34.0802C11.6289 34.4553 12.1377 34.666 12.6682 34.666ZM12.0014 27.332C12.0014 27.1551 12.0717 26.9856 12.1967 26.8605C12.3217 26.7355 12.4913 26.6652 12.6682 26.6652C12.845 26.6652 13.0146 26.7355 13.1396 26.8605C13.2646 26.9856 13.3349 27.1551 13.3349 27.332V32.6658C13.3349 32.8426 13.2646 33.0122 13.1396 33.1373C13.0146 33.2623 12.845 33.3325 12.6682 33.3325C12.4913 33.3325 12.3217 33.2623 12.1967 33.1373C12.0717 33.0122 12.0014 32.8426 12.0014 32.6658V27.332Z" fill="#F2F2F2"/>
<path d="M18.0015 34.666C18.532 34.666 19.0407 34.4553 19.4158 34.0802C19.791 33.7051 20.0017 33.1963 20.0017 32.6658V27.332C20.0017 26.8015 19.791 26.2927 19.4158 25.9176C19.0407 25.5425 18.532 25.3318 18.0015 25.3318C17.471 25.3318 16.9623 25.5425 16.5872 25.9176C16.212 26.2927 16.0013 26.8015 16.0013 27.332V32.6658C16.0013 33.1963 16.212 33.7051 16.5872 34.0802C16.9623 34.4553 17.471 34.666 18.0015 34.666ZM17.3348 27.332C17.3348 27.1551 17.405 26.9856 17.5301 26.8605C17.6551 26.7355 17.8247 26.6652 18.0015 26.6652C18.1783 26.6652 18.3479 26.7355 18.473 26.8605C18.598 26.9856 18.6682 27.1551 18.6682 27.332V32.6658C18.6682 32.8426 18.598 33.0122 18.473 33.1373C18.3479 33.2623 18.1783 33.3325 18.0015 33.3325C17.8247 33.3325 17.6551 33.2623 17.5301 33.1373C17.405 33.0122 17.3348 32.8426 17.3348 32.6658V27.332Z" fill="#F2F2F2"/>
<path d="M39.8923 34.9628L37.2254 30.9624C37.1645 30.8711 37.082 30.7963 36.9852 30.7445C36.8885 30.6928 36.7804 30.6657 36.6707 30.6657V7.92291C37.5292 7.04533 38.007 5.86454 38.0002 4.63686C37.9935 3.40918 37.5028 2.23371 36.6347 1.3656C35.7666 0.497487 34.5911 0.00680633 33.3635 7.02757e-05C32.1358 -0.00666578 30.955 0.471086 30.0774 1.32962H15.9281C15.0505 0.471086 13.8697 -0.00666578 12.642 7.02757e-05C11.4143 0.00680633 10.2389 0.497487 9.37075 1.3656C8.50264 2.23371 8.01196 3.40918 8.00522 4.63686C7.99849 5.86454 8.47624 7.04533 9.33477 7.92291V10.6638H8.66804C8.49121 10.6638 8.32163 10.7341 8.19659 10.8591C8.07156 10.9842 8.00131 11.1537 8.00131 11.3306V13.9975C8.00131 14.1743 8.07156 14.3439 8.19659 14.4689C8.32163 14.594 8.49121 14.6642 8.66804 14.6642H9.33477V16.6644C9.33481 16.8412 9.40508 17.0108 9.53012 17.1358L10.8636 18.4692L11.8063 17.5265L10.6682 16.3884V14.6642H14.6686V16.3884L13.5305 17.5265L14.4733 18.4692L15.8067 17.1358C15.9318 17.0108 16.002 16.8412 16.0021 16.6644V14.6642H16.6688C16.8456 14.6642 17.0152 14.594 17.1403 14.4689C17.2653 14.3439 17.3355 14.1743 17.3355 13.9975V11.3306C17.3355 11.1537 17.2653 10.9842 17.1403 10.8591C17.0152 10.7341 16.8456 10.6638 16.6688 10.6638H16.0021V7.99692H30.0034V30.6657C29.8937 30.6657 29.7856 30.6928 29.6888 30.7445C29.5921 30.7963 29.5096 30.8711 29.4487 30.9624L26.7818 34.9628C26.7089 35.0725 26.67 35.2012 26.6697 35.3328V39.3332C26.6697 39.51 26.74 39.6796 26.865 39.8047C26.9901 39.9297 27.1597 40 27.3365 40H39.3376C39.5144 40 39.684 39.9297 39.8091 39.8047C39.9341 39.6796 40.0043 39.51 40.0043 39.3332V35.3328C40.0041 35.2012 39.9652 35.0725 39.8923 34.9628ZM33.337 1.32962C33.9964 1.32962 34.6409 1.52513 35.1891 1.89144C35.7373 2.25775 36.1646 2.77839 36.4169 3.38754C36.6693 3.99668 36.7353 4.66697 36.6066 5.31363C36.478 5.9603 36.1605 6.55429 35.6943 7.02051C35.2281 7.48673 34.6341 7.80423 33.9874 7.93286C33.3407 8.06149 32.6705 7.99547 32.0613 7.74316C31.4522 7.49084 30.9315 7.06356 30.5652 6.51534C30.1989 5.96713 30.0034 5.3226 30.0034 4.66327C30.0045 3.77945 30.356 2.93214 30.981 2.30719C31.6059 1.68224 32.4532 1.33068 33.337 1.32962ZM29.1266 6.66346H16.8788C17.1794 6.03952 17.3355 5.35584 17.3355 4.66327C17.3355 3.97069 17.1794 3.28702 16.8788 2.66308H29.1266C28.8261 3.28702 28.67 3.97069 28.67 4.66327C28.67 5.35584 28.8261 6.03952 29.1266 6.66346ZM12.6684 1.32962C13.3278 1.32962 13.9723 1.52513 14.5205 1.89144C15.0687 2.25775 15.496 2.77839 15.7483 3.38754C16.0006 3.99668 16.0666 4.66697 15.938 5.31363C15.8094 5.9603 15.4919 6.55429 15.0257 7.02051C14.5594 7.48673 13.9654 7.80423 13.3188 7.93286C12.6721 8.06149 12.0018 7.99547 11.3927 7.74316C10.7835 7.49084 10.2629 7.06356 9.89659 6.51534C9.53029 5.96713 9.33477 5.3226 9.33477 4.66327C9.33583 3.77945 9.68739 2.93214 10.3123 2.30719C10.9373 1.68224 11.7846 1.33068 12.6684 1.32962ZM16.0021 13.3308H9.33477V11.9973H16.0021V13.3308ZM10.6682 10.6638V8.87367C11.2922 9.17426 11.9758 9.33037 12.6684 9.33037C13.361 9.33037 14.0447 9.17426 14.6686 8.87367V10.6638H10.6682ZM31.3369 8.87367C31.9608 9.17426 32.6445 9.33037 33.337 9.33037C34.0296 9.33037 34.7133 9.17426 35.3372 8.87367V30.6657H31.3369V8.87367ZM30.3601 31.9992H36.314L38.0922 34.6661H28.5819L30.3601 31.9992ZM28.0032 38.6665V35.9996H38.6709V38.6665H28.0032Z" fill="#F2F2F2"/>
</svg>
