<svg width="42" height="40" viewBox="0 0 42 40" fill="none" xmlns="http://www.w3.org/2000/svg">
<path d="M41.5899 21.9248C41.2158 18.1615 39.5345 14.6137 36.8557 11.9348C34.5664 9.64559 31.7644 8.1745 28.816 7.52038V5.45246C30.0202 5.15287 30.9153 4.06283 30.9153 2.76721C30.9153 1.24134 29.674 0 28.1481 0H22.2882C20.7623 0 19.5209 1.24134 19.5209 2.76721C19.5209 4.06275 20.4161 5.15279 21.6202 5.45246V7.52616C18.6809 8.18304 15.8881 9.65211 13.6053 11.9349C13.1057 12.4345 12.6451 12.9585 12.2234 13.5032C12.203 13.5016 12.1826 13.5001 12.1617 13.5001H6.36189C5.91247 13.5001 5.54801 13.8644 5.54801 14.314C5.54801 14.7635 5.91247 15.1278 6.36189 15.1278H11.116C10.5192 16.1269 10.038 17.1761 9.6718 18.2561H0.813885C0.364458 18.2561 0 18.6205 0 19.07C0 19.5195 0.364458 19.8839 0.813885 19.8839H9.21187C8.97731 20.9135 8.8427 21.9614 8.80794 23.0122H5.20886C4.75944 23.0122 4.39498 23.3766 4.39498 23.8261C4.39498 24.2756 4.75944 24.64 5.20886 24.64H8.83391C8.9026 25.6935 9.07197 26.7414 9.3421 27.7683H4.06942C3.62 27.7683 3.25554 28.1327 3.25554 28.5822C3.25554 29.0317 3.62 29.3961 4.06942 29.3961H9.86152C10.6599 31.5082 11.9077 33.4878 13.6053 35.1854C16.2867 37.8668 19.8382 39.5485 23.6053 39.9206C24.143 39.9737 24.6811 40 25.2184 40C28.3943 40 31.5299 39.0809 34.1905 37.3483C34.5672 37.103 34.6737 36.5988 34.4284 36.2221C34.1831 35.8454 33.6789 35.7389 33.3022 35.9842C27.4783 39.7767 19.6786 38.9567 14.7563 34.0344C8.98081 28.2589 8.98081 18.8615 14.7563 13.086C20.5317 7.31056 29.9291 7.31056 35.7046 13.086C40.6204 18.0018 41.4449 25.7949 37.665 31.6159C37.4201 31.9929 37.5273 32.497 37.9042 32.7418C38.2814 32.9866 38.7854 32.8794 39.0301 32.5024C41.0497 29.3922 41.9588 25.6357 41.5899 21.9248ZM21.1487 2.76729C21.1487 2.13897 21.6598 1.62785 22.2882 1.62785H28.1481C28.7764 1.62785 29.2876 2.13897 29.2876 2.76729C29.2876 3.39561 28.7764 3.90673 28.1481 3.90673H28.0021H22.4341H22.2882C21.6598 3.90673 21.1487 3.39553 21.1487 2.76729ZM23.248 7.24634V5.5345H27.1882V7.24341C25.8798 7.0878 24.5561 7.08877 23.248 7.24634Z" fill="#F2F2F2"/>
<path d="M36.28 33.7957C36.0652 33.7957 35.856 33.8827 35.7047 34.0341C35.5525 34.1855 35.4662 34.3955 35.4662 34.6095C35.4662 34.8236 35.5525 35.0336 35.7047 35.1849C35.856 35.3371 36.0652 35.4234 36.28 35.4234C36.4941 35.4234 36.7032 35.3371 36.8554 35.1849C37.0068 35.0336 37.0939 34.8236 37.0939 34.6095C37.0939 34.3955 37.0069 34.1855 36.8554 34.0341C36.7032 33.8827 36.494 33.7957 36.28 33.7957Z" fill="#F2F2F2"/>
<path d="M25.2299 10.9343C18.2681 10.9343 12.6042 16.5982 12.6042 23.56C12.6042 30.5219 18.2681 36.1858 25.2299 36.1858C32.1917 36.1858 37.8556 30.5219 37.8556 23.56C37.8556 16.5982 32.1917 10.9343 25.2299 10.9343ZM25.2299 34.558C19.1655 34.558 14.2319 29.6243 14.2319 23.56C14.2319 17.4958 19.1655 12.5621 25.2299 12.5621C31.2942 12.5621 36.2278 17.4958 36.2278 23.56C36.2278 29.6243 31.2942 34.558 25.2299 34.558Z" fill="#F2F2F2"/>
<path d="M30.3796 17.2608L26.3484 21.2919C26.0113 21.1252 25.6321 21.0311 25.2313 21.0311C24.8304 21.0311 24.4513 21.1252 24.1141 21.2919L22.31 19.4878C21.9921 19.17 21.4769 19.17 21.1589 19.4878C20.8411 19.8056 20.8411 20.321 21.1589 20.6388L22.9631 22.4429C22.7963 22.78 22.7022 23.1592 22.7022 23.5601C22.7022 24.9546 23.8367 26.0891 25.2313 26.0891C26.6259 26.0891 27.7603 24.9546 27.7603 23.5601C27.7603 23.1592 27.6662 22.78 27.4995 22.4429L31.4123 18.5301L31.5306 18.4118C31.8484 18.094 31.8484 17.5786 31.5306 17.2608C31.2128 16.943 30.6976 16.943 30.3796 17.2608ZM25.2313 24.4614C24.7343 24.4614 24.33 24.0571 24.33 23.5601C24.33 23.0632 24.7343 22.6588 25.2313 22.6588C25.7282 22.6588 26.1326 23.0632 26.1326 23.5601C26.1326 24.0571 25.7282 24.4614 25.2313 24.4614Z" fill="#F2F2F2"/>
<path d="M33.9325 22.7561H33.1785C32.729 22.7561 32.3646 23.1205 32.3646 23.57C32.3646 24.0195 32.729 24.3839 33.1785 24.3839H33.9325C34.3819 24.3839 34.7464 24.0195 34.7464 23.57C34.7464 23.1205 34.3819 22.7561 33.9325 22.7561Z" fill="#F2F2F2"/>
<path d="M17.2827 22.7361H16.5287C16.0793 22.7361 15.7148 23.1005 15.7148 23.55C15.7148 23.9995 16.0793 24.3638 16.5287 24.3638H17.2827C17.7321 24.3638 18.0966 23.9995 18.0966 23.55C18.0966 23.1005 17.7321 22.7361 17.2827 22.7361Z" fill="#F2F2F2"/>
<path d="M25.241 16.4259C25.6904 16.4259 26.0548 16.0615 26.0548 15.612V14.8581C26.0548 14.4086 25.6904 14.0442 25.241 14.0442C24.7915 14.0442 24.4271 14.4086 24.4271 14.8581V15.612C24.4271 16.0615 24.7915 16.4259 25.241 16.4259Z" fill="#F2F2F2"/>
<path d="M25.2201 30.6941C24.7707 30.6941 24.4062 31.0585 24.4062 31.508V32.2619C24.4062 32.7114 24.7707 33.0758 25.2201 33.0758C25.6695 33.0758 26.034 32.7114 26.034 32.2619V31.508C26.034 31.0585 25.6695 30.6941 25.2201 30.6941Z" fill="#F2F2F2"/>
<path d="M0.813872 27.7678C0.599824 27.7678 0.389845 27.8549 0.238465 28.0063C0.0870843 28.1577 0 28.3676 0 28.5817C0 28.7966 0.0870029 29.0057 0.238465 29.1571C0.389926 29.3085 0.599824 29.3956 0.813872 29.3956C1.02792 29.3956 1.2379 29.3085 1.3892 29.1571C1.54058 29.0057 1.62774 28.7957 1.62774 28.5817C1.62774 28.3676 1.54066 28.1577 1.3892 28.0063C1.2379 27.8549 1.02792 27.7678 0.813872 27.7678Z" fill="#F2F2F2"/>
</svg>
