<svg width="38" height="40" viewBox="0 0 38 40" fill="none" xmlns="http://www.w3.org/2000/svg">
<path d="M37.3333 4.66667V2.66667C37.3333 1.95942 37.0524 1.28115 36.5523 0.781048C36.0522 0.280952 35.3739 0 34.6667 0H6C5.29276 0 4.61448 0.280952 4.11438 0.781048C3.61428 1.28115 3.33333 1.95942 3.33333 2.66667V4H2C1.46957 4 0.960859 4.21071 0.585786 4.58579C0.210714 4.96086 0 5.46957 0 6C0 6.53043 0.210714 7.03914 0.585786 7.41421C0.960859 7.78929 1.46957 8 2 8H3.33333V34.6667H0.666667C0.489856 34.6667 0.320286 34.7369 0.195262 34.8619C0.070238 34.9869 0 35.1565 0 35.3333V37.3333C0 38.0406 0.280951 38.7188 0.781048 39.2189C1.28115 39.719 1.95942 40 2.66667 40H26.6667C28.876 40.0021 31.0313 39.3175 32.8345 38.0409C34.6377 36.7643 35.9995 34.959 36.7317 32.8745C37.4639 30.79 37.5301 28.5295 36.9213 26.4058C36.3125 24.282 35.0587 22.4 33.3333 21.02V5.33333H36.6667C36.8435 5.33333 37.013 5.26309 37.1381 5.13807C37.2631 5.01305 37.3333 4.84348 37.3333 4.66667ZM1.33333 6C1.33333 5.82319 1.40357 5.65362 1.5286 5.52859C1.65362 5.40357 1.82319 5.33333 2 5.33333H20V6.66667H2C1.82319 6.66667 1.65362 6.59643 1.5286 6.4714C1.40357 6.34638 1.33333 6.17681 1.33333 6ZM24.5093 5.33333L25.8427 6L24.5093 6.66667H21.3333V5.33333H24.5093ZM2.66667 38.6667C2.31304 38.6667 1.97391 38.5262 1.72386 38.2761C1.47381 38.0261 1.33333 37.687 1.33333 37.3333V36H18.3533C19.2244 37.0851 20.2978 37.9907 21.514 38.6667H2.66667ZM36 29.3333C36 31.1793 35.4526 32.9838 34.427 34.5187C33.4015 36.0535 31.9438 37.2498 30.2384 37.9562C28.5329 38.6626 26.6563 38.8475 24.8458 38.4873C23.0353 38.1272 21.3723 37.2383 20.067 35.933C18.7617 34.6277 17.8728 32.9647 17.5127 31.1542C17.1525 29.3437 17.3374 27.4671 18.0438 25.7616C18.7502 24.0562 19.9465 22.5985 21.4813 21.5729C23.0162 20.5474 24.8207 20 26.6667 20C29.1412 20.0026 31.5136 20.9868 33.2634 22.7366C35.0132 24.4864 35.9973 26.8588 36 29.3333ZM26.6667 18.6667C24.7932 18.6633 22.952 19.1543 21.329 20.0901C19.706 21.0259 18.3586 22.3734 17.423 23.9965C16.4873 25.6196 15.9965 27.4608 16.0001 29.3343C16.0036 31.2078 16.5015 33.0471 17.4433 34.6667H4.66667V8H24.6667C24.7701 8.0001 24.8721 7.97613 24.9647 7.93L27.6313 6.59667C27.7423 6.54137 27.8356 6.45625 27.9008 6.35085C27.9661 6.24545 28.0006 6.12395 28.0006 6C28.0006 5.87605 27.9661 5.75455 27.9008 5.64915C27.8356 5.54375 27.7423 5.45862 27.6313 5.40333L24.9647 4.07C24.8721 4.02387 24.7701 3.9999 24.6667 4H4.66667V2.66667C4.66667 2.31304 4.80714 1.97391 5.05719 1.72386C5.30724 1.47381 5.64638 1.33333 6 1.33333H32.3707C32.1307 1.7369 32.0028 2.19716 32 2.66667V20.11C30.3813 19.1654 28.5408 18.6673 26.6667 18.6667ZM36 4H33.3333V2.66667C33.3333 2.31304 33.4738 1.97391 33.7239 1.72386C33.9739 1.47381 34.313 1.33333 34.6667 1.33333C35.0203 1.33333 35.3594 1.47381 35.6095 1.72386C35.8595 1.97391 36 2.31304 36 2.66667V4Z" fill="#F2F2F2"/>
<path d="M24.7814 26.5052L23.8386 27.448L24.7814 28.3908L25.7242 27.448L24.7814 26.5052Z" fill="#F2F2F2"/>
<path d="M28.5522 30.2759L27.6094 31.2188L28.5522 32.1616L29.495 31.2188L28.5522 30.2759Z" fill="#F2F2F2"/>
<path d="M29.0223 26.0338L23.3659 31.6902L24.3087 32.633L29.9651 26.9766L29.0223 26.0338Z" fill="#F2F2F2"/>
<path d="M26.6667 21.3333C25.0844 21.3333 23.5377 21.8024 22.2221 22.6815C20.9065 23.5605 19.8812 24.81 19.2757 26.2718C18.6702 27.7336 18.5117 29.3421 18.8204 30.894C19.1291 32.4458 19.891 33.8713 21.0098 34.9901C22.1287 36.1089 23.5541 36.8708 25.106 37.1795C26.6578 37.4882 28.2663 37.3298 29.7282 36.7243C31.19 36.1188 32.4394 35.0934 33.3184 33.7778C34.1975 32.4622 34.6667 30.9155 34.6667 29.3333C34.6644 27.2122 33.8208 25.1787 32.321 23.6789C30.8212 22.1791 28.7877 21.3355 26.6667 21.3333ZM26.6667 35.9999C25.3481 35.9999 24.0592 35.6089 22.9629 34.8764C21.8666 34.1438 21.0121 33.1026 20.5075 31.8845C20.0029 30.6663 19.8709 29.3259 20.1281 28.0326C20.3854 26.7394 21.0203 25.5516 21.9526 24.6192C22.885 23.6869 24.0729 23.0519 25.3661 22.7947C26.6593 22.5374 27.9997 22.6695 29.2179 23.1741C30.4361 23.6786 31.4773 24.5331 32.2098 25.6294C32.9424 26.7258 33.3334 28.0147 33.3334 29.3333C33.3314 31.1008 32.6284 32.7953 31.3786 34.0451C30.1288 35.295 28.4342 35.998 26.6667 35.9999Z" fill="#F2F2F2"/>
<path d="M9.33333 10H8V11.3333H9.33333V10Z" fill="#F2F2F2"/>
<path d="M30 10H10.6667V11.3333H30V10Z" fill="#F2F2F2"/>
<path d="M30 12.6667H6.66669V14.0001H30V12.6667Z" fill="#F2F2F2"/>
<path d="M30 15.3333H6.66669V16.6666H30V15.3333Z" fill="#F2F2F2"/>
<path d="M20 18H6.66669V19.3333H20V18Z" fill="#F2F2F2"/>
<path d="M13.3334 31.3333H6.66669V32.6666H13.3334V31.3333Z" fill="#F2F2F2"/>
<path d="M6.66669 22.6667V28C6.66669 28.1768 6.73693 28.3464 6.86195 28.4714C6.98697 28.5964 7.15654 28.6667 7.33335 28.6667H14.6667V27.3333H8.00002V23.3333H16.6667V22H7.33335C7.15654 22 6.98697 22.0702 6.86195 22.1953C6.73693 22.3203 6.66669 22.4899 6.66669 22.6667Z" fill="#F2F2F2"/>
<path d="M36 8H34.6667V19.3333H36V8Z" fill="#F2F2F2"/>
<path d="M2.00002 10.6667H0.666687V26.6667H2.00002V10.6667Z" fill="#F2F2F2"/>
<path d="M2.00002 28H0.666687V29.3333H2.00002V28Z" fill="#F2F2F2"/>
</svg>
