<svg width="29" height="40" viewBox="0 0 29 40" fill="none" xmlns="http://www.w3.org/2000/svg">
<path d="M24.3838 26.3895L22.6917 26.027L22.6856 26.025L18.6268 25.1568C18.6542 24.958 18.6687 24.7576 18.67 24.557V22.6721C19.8882 21.8939 20.8909 20.8217 21.5858 19.5543C22.2807 18.2868 22.6454 16.8649 22.6464 15.4194V13.8835H23.5737C23.6513 13.8836 23.7281 13.8683 23.7998 13.8387C23.8715 13.809 23.9366 13.7655 23.9915 13.7106C24.0463 13.6558 24.0898 13.5906 24.1195 13.5189C24.1492 13.4472 24.1644 13.3704 24.1644 13.2928V11.2675C24.1644 11.1899 24.1492 11.1131 24.1195 11.0414C24.0898 10.9697 24.0463 10.9046 23.9915 10.8497C23.9366 10.7948 23.8715 10.7513 23.7998 10.7217C23.7281 10.692 23.6513 10.6767 23.5737 10.6768H23.1473C23.1228 8.64598 22.4194 6.68178 21.1492 5.097C19.879 3.51223 18.1151 2.39802 16.1384 1.93181V0.590717C16.1384 0.513131 16.1232 0.436296 16.0935 0.364607C16.0639 0.292918 16.0203 0.22778 15.9655 0.172918C15.9106 0.118056 15.8455 0.074546 15.7738 0.0448754C15.7021 0.0152048 15.6253 -4.42767e-05 15.5477 9.65627e-08H12.5097C12.353 9.65627e-08 12.2028 0.0622362 12.092 0.173017C11.9812 0.283798 11.919 0.434049 11.919 0.590717V1.93181C9.94225 2.39802 8.17835 3.51223 6.90818 5.097C5.63801 6.68178 4.93463 8.64598 4.91004 10.6768H4.48371C4.40613 10.6767 4.32929 10.692 4.2576 10.7217C4.18591 10.7513 4.12078 10.7948 4.06592 10.8497C4.01105 10.9046 3.96754 10.9697 3.93787 11.0414C3.9082 11.1131 3.89295 11.1899 3.893 11.2675V13.2928C3.89295 13.3704 3.9082 13.4472 3.93787 13.5189C3.96754 13.5906 4.01105 13.6558 4.06592 13.7106C4.12078 13.7655 4.18591 13.809 4.2576 13.8387C4.32929 13.8683 4.40613 13.8836 4.48371 13.8835H5.41097V15.4194C5.41195 16.8649 5.77669 18.2868 6.47159 19.5543C7.16649 20.8217 8.16921 21.8939 9.38734 22.6721V24.557C9.38872 24.7576 9.40315 24.958 9.43055 25.1568L5.37182 26.025H5.36743L3.67426 26.3875C2.63657 26.6128 1.70682 27.1854 1.03872 28.0108C0.370627 28.8361 0.00419221 29.8647 0 30.9266V39.4093C0 39.566 0.0622357 39.7162 0.173017 39.827C0.283798 39.9378 0.434049 40 0.590717 40H27.4667C27.6233 40 27.7736 39.9378 27.8844 39.827C27.9952 39.7162 28.0574 39.566 28.0574 39.4093V30.9266C28.0528 29.8652 27.6863 28.837 27.0184 28.0121C26.3504 27.1872 25.4211 26.6148 24.3838 26.3895ZM21.9659 10.6768H19.1764V7.21688C19.1764 7.06021 19.1141 6.90996 19.0034 6.79918C18.8926 6.6884 18.7423 6.62616 18.5857 6.62616C18.429 6.62616 18.2787 6.6884 18.168 6.79918C18.0572 6.90996 17.9949 7.06021 17.9949 7.21688V10.6768H16.1384V3.1416C17.7953 3.59618 19.2595 4.57688 20.3106 5.93595C21.3617 7.29502 21.9426 8.95886 21.9659 10.6768ZM13.1004 1.18143H14.957V10.6768H13.1004V1.18143ZM11.919 3.14194V10.6768H10.0624V7.21688C10.0624 7.06021 10.0002 6.90996 9.88943 6.79918C9.77865 6.6884 9.6284 6.62616 9.47173 6.62616C9.31506 6.62616 9.16481 6.6884 9.05403 6.79918C8.94325 6.90996 8.88101 7.06021 8.88101 7.21688V10.6768H6.09148C6.11474 8.95889 6.69567 7.29508 7.74675 5.93605C8.79784 4.57702 10.2621 3.5964 11.919 3.14194ZM5.07443 11.8582H22.983V12.7021H5.07443V11.8582ZM6.59342 15.4194V13.8835H21.465V15.4194C21.465 17.3916 20.6815 19.2831 19.2869 20.6777C17.8924 22.0722 16.0009 22.8557 14.0287 22.8557C12.0565 22.8557 10.165 22.0722 8.77044 20.6777C7.37587 19.2831 6.59241 17.3916 6.59241 15.4194H6.59342ZM14.0287 24.0338C15.2199 24.0349 16.3983 23.7877 17.4886 23.308V24.557C17.4886 25.4746 17.1241 26.3546 16.4752 27.0035C15.8264 27.6524 14.9463 28.0169 14.0287 28.0169C13.1111 28.0169 12.231 27.6524 11.5822 27.0035C10.9333 26.3546 10.5688 25.4746 10.5688 24.557V23.308C11.6591 23.7877 12.8375 24.0349 14.0287 24.0338ZM1.18143 30.9266C1.18505 30.1352 1.45854 29.3687 1.95671 28.7538C2.45489 28.1389 3.14794 27.7124 3.92135 27.5446L4.90464 27.334V38.8186H1.18143V30.9266ZM6.08608 27.0812L9.73165 26.3008C10.042 27.0621 10.5487 27.7275 11.2 28.2291C11.8513 28.7308 12.624 29.0508 13.4393 29.1565V38.8186H6.08608V27.0812ZM14.6194 38.8186V29.1565C15.4347 29.0508 16.2075 28.7309 16.8588 28.2292C17.5101 27.7275 18.0168 27.0621 18.3271 26.3008L21.9727 27.0812V38.8186H14.6194ZM26.876 38.8186H23.1527V27.3343L24.1364 27.545C24.9097 27.7128 25.6026 28.1393 26.1007 28.7541C26.5988 29.369 26.8723 30.1353 26.876 30.9266V38.8186Z" fill="#F2F2F2"/>
<path d="M25.441 32.8467C25.3634 32.8466 25.2866 32.8619 25.2149 32.8916C25.1432 32.9212 25.078 32.9647 25.0232 33.0196C24.9683 33.0745 24.9248 33.1396 24.8951 33.2113C24.8655 33.283 24.8502 33.3598 24.8503 33.4374V35.5488C24.8503 35.7055 24.9125 35.8557 25.0233 35.9665C25.1341 36.0773 25.2843 36.1395 25.441 36.1395C25.5976 36.1395 25.7479 36.0773 25.8587 35.9665C25.9695 35.8557 26.0317 35.7055 26.0317 35.5488V33.4374C26.0317 33.2807 25.9695 33.1305 25.8587 33.0197C25.7479 32.9089 25.5976 32.8467 25.441 32.8467Z" fill="#F2F2F2"/>
<path d="M11.281 31.5037H8.24306C8.08639 31.5037 7.93614 31.5659 7.82536 31.6767C7.71458 31.7875 7.65234 31.9377 7.65234 32.0944C7.65234 32.251 7.71458 32.4013 7.82536 32.5121C7.93614 32.6229 8.08639 32.6851 8.24306 32.6851H11.281C11.4377 32.6851 11.588 32.6229 11.6987 32.5121C11.8095 32.4013 11.8718 32.251 11.8718 32.0944C11.8718 31.9377 11.8095 31.7875 11.6987 31.6767C11.588 31.5659 11.4377 31.5037 11.281 31.5037Z" fill="#F2F2F2"/>
</svg>
