<svg width="15" height="15" viewBox="0 0 15 15" fill="none" xmlns="http://www.w3.org/2000/svg">
<path d="M7.5 15C11.6421 15 15 11.6421 15 7.5C15 3.35786 11.6421 0 7.5 0C3.35786 0 0 3.35786 0 7.5C0 11.6421 3.35786 15 7.5 15Z" fill="#F0F0F0"/>
<path d="M1.55032 2.93408C0.961191 3.70058 0.516963 4.58402 0.258301 5.54376H4.16L1.55032 2.93408Z" fill="#0052B4"/>
<path d="M14.7417 5.54373C14.4831 4.58402 14.0388 3.70058 13.4497 2.93408L10.8401 5.54373H14.7417Z" fill="#0052B4"/>
<path d="M0.258301 9.45679C0.516992 10.4165 0.961221 11.2999 1.55032 12.0664L4.15991 9.45679H0.258301Z" fill="#0052B4"/>
<path d="M12.0659 1.5506C11.2995 0.961465 10.416 0.517236 9.4563 0.258545V4.16021L12.0659 1.5506Z" fill="#0052B4"/>
<path d="M2.93359 13.4497C3.70009 14.0388 4.58354 14.483 5.54324 14.7417V10.8401L2.93359 13.4497Z" fill="#0052B4"/>
<path d="M5.54321 0.258545C4.58351 0.517236 3.70006 0.961465 2.93359 1.55057L5.54321 4.16019V0.258545Z" fill="#0052B4"/>
<path d="M9.4563 14.7417C10.416 14.483 11.2995 14.0388 12.0659 13.4497L9.4563 10.8401V14.7417Z" fill="#0052B4"/>
<path d="M10.8401 9.45679L13.4497 12.0664C14.0388 11.3 14.4831 10.4165 14.7417 9.45679H10.8401Z" fill="#0052B4"/>
<path d="M14.9365 6.52175H8.47831H8.47828V0.0634863C8.15804 0.0217969 7.83155 0 7.5 0C7.16839 0 6.84196 0.0217969 6.52175 0.0634863V6.52169V6.52172H0.0634863C0.0217969 6.84196 0 7.16845 0 7.5C0 7.83161 0.0217969 8.15804 0.0634863 8.47825H6.52169H6.52172V14.9365C6.84196 14.9782 7.16839 15 7.5 15C7.83155 15 8.15804 14.9782 8.47825 14.9365V8.47831V8.47828H14.9365C14.9782 8.15804 15 7.83161 15 7.5C15 7.16845 14.9782 6.84196 14.9365 6.52175Z" fill="#D80027"/>
<path d="M9.45654 9.45657L12.8033 12.8033C12.9572 12.6495 13.1041 12.4886 13.2442 12.3218L10.3789 9.45654H9.45654V9.45657Z" fill="#D80027"/>
<path d="M5.54356 9.45654H5.54351L2.19678 12.8033C2.35064 12.9572 2.51151 13.104 2.67827 13.2441L5.54356 10.3788V9.45654Z" fill="#D80027"/>
<path d="M5.54348 5.54362V5.54356L2.19672 2.19678C2.04279 2.35064 1.89596 2.51151 1.75586 2.67827L4.62118 5.54359H5.54348V5.54362Z" fill="#D80027"/>
<path d="M9.45654 5.54351L12.8033 2.19669C12.6495 2.04276 12.4886 1.89593 12.3218 1.75586L9.45654 4.62118V5.54351Z" fill="#D80027"/>
</svg>
