<svg width="15" height="15" viewBox="0 0 15 15" fill="none" xmlns="http://www.w3.org/2000/svg">
<path d="M7.5 15C11.6421 15 15 11.6421 15 7.5C15 3.35786 11.6421 0 7.5 0C3.35786 0 0 3.35786 0 7.5C0 11.6421 3.35786 15 7.5 15Z" fill="#F0F0F0"/>
<path d="M1.54913 2.93457C0.960001 3.70106 0.515773 4.58451 0.257111 5.54425H4.15881L1.54913 2.93457Z" fill="#0052B4"/>
<path d="M14.7417 5.54422C14.4831 4.58451 14.0388 3.70106 13.4497 2.93457L10.8401 5.54422H14.7417Z" fill="#0052B4"/>
<path d="M0.257111 9.45703C0.515802 10.4167 0.96003 11.3002 1.54913 12.0667L4.15872 9.45703H0.257111Z" fill="#0052B4"/>
<path d="M12.0659 1.55084C11.2995 0.961709 10.416 0.51748 9.4563 0.258789V4.16046L12.0659 1.55084Z" fill="#0052B4"/>
<path d="M2.93359 13.4494C3.70009 14.0386 4.58354 14.4828 5.54324 14.7415V10.8398L2.93359 13.4494Z" fill="#0052B4"/>
<path d="M5.54321 0.258789C4.58351 0.51748 3.70006 0.961709 2.93359 1.55081L5.54321 4.16043V0.258789Z" fill="#0052B4"/>
<path d="M9.4563 14.7415C10.416 14.4828 11.2995 14.0386 12.0659 13.4495L9.4563 10.8398V14.7415Z" fill="#0052B4"/>
<path d="M10.8401 9.45703L13.4497 12.0667C14.0388 11.3002 14.4831 10.4167 14.7417 9.45703H10.8401Z" fill="#0052B4"/>
<path d="M14.9365 6.52175H8.47831H8.47828V0.0634863C8.15804 0.0217969 7.83155 0 7.5 0C7.16839 0 6.84196 0.0217969 6.52175 0.0634863V6.52169V6.52172H0.0634863C0.0217969 6.84196 0 7.16845 0 7.5C0 7.83161 0.0217969 8.15804 0.0634863 8.47825H6.52169H6.52172V14.9365C6.84196 14.9782 7.16839 15 7.5 15C7.83155 15 8.15804 14.9782 8.47825 14.9365V8.47831V8.47828H14.9365C14.9782 8.15804 15 7.83161 15 7.5C15 7.16845 14.9782 6.84196 14.9365 6.52175Z" fill="#D80027"/>
<path d="M9.45654 9.45706L12.8033 12.8038C12.9572 12.65 13.1041 12.4891 13.2442 12.3223L10.3789 9.45703H9.45654V9.45706Z" fill="#D80027"/>
<path d="M5.54356 9.45703H5.54351L2.19678 12.8038C2.35064 12.9577 2.51151 13.1045 2.67827 13.2446L5.54356 10.3793V9.45703Z" fill="#D80027"/>
<path d="M5.54348 5.54313V5.54308L2.19672 2.19629C2.04279 2.35016 1.89596 2.51103 1.75586 2.67778L4.62118 5.54311H5.54348V5.54313Z" fill="#D80027"/>
<path d="M9.45654 5.54351L12.8033 2.19669C12.6495 2.04276 12.4886 1.89593 12.3218 1.75586L9.45654 4.62118V5.54351Z" fill="#D80027"/>
</svg>
