<svg width="15" height="15" viewBox="0 0 15 15" fill="none" xmlns="http://www.w3.org/2000/svg">
<path d="M0.466309 10.1082C1.526 12.9642 4.27506 14.9995 7.49978 14.9995C10.7245 14.9995 13.4736 12.9642 14.5333 10.1082L7.49978 9.45605L0.466309 10.1082Z" fill="#FFDA44"/>
<path d="M7.49978 0C4.27506 0 1.526 2.0353 0.466309 4.8913L7.49978 5.54344L14.5333 4.89127C13.4736 2.0353 10.7245 0 7.49978 0Z" fill="black"/>
<path d="M0.466492 4.8916C0.165029 5.70409 0 6.58287 0 7.50027C0 8.41767 0.165029 9.29646 0.466492 10.1089H14.5335C14.8349 9.29646 14.9999 8.41767 14.9999 7.50027C14.9999 6.58287 14.8349 5.70409 14.5334 4.8916H0.466492Z" fill="#D80027"/>
</svg>
