<svg width="15" height="15" viewBox="0 0 15 15" fill="none" xmlns="http://www.w3.org/2000/svg">
<path d="M7.5 15C11.6421 15 15 11.6421 15 7.5C15 3.35786 11.6421 0 7.5 0C3.35786 0 0 3.35786 0 7.5C0 11.6421 3.35786 15 7.5 15Z" fill="#F0F0F0"/>
<path d="M10.3241 5.86969H8.44135L7.50004 4.23926L6.55876 5.86969H4.67603L5.61745 7.50012L4.67603 9.13055H6.55876L7.50004 10.761L8.44135 9.13055H10.3241L9.38263 7.50012L10.3241 5.86969ZM8.65653 7.50012L8.07833 8.50172H6.92184L6.34354 7.50012L6.92181 6.49852H8.0783L8.65653 7.50012ZM7.50004 5.49688L7.71525 5.86966H7.28488L7.50004 5.49688ZM5.76525 6.49852H6.19568L5.98047 6.87129L5.76525 6.49852ZM5.76525 8.50172L5.9805 8.12895L6.19571 8.50172H5.76525ZM7.50004 9.50332L7.28485 9.13055H7.71525L7.50004 9.50332ZM9.23482 8.50172H8.8044L9.01964 8.12895L9.23482 8.50172ZM8.8044 6.49852H9.23482L9.01961 6.87129L8.8044 6.49852Z" fill="#0052B4"/>
<path d="M12.1684 1.63086H2.83112C2.14666 2.17602 1.55967 2.83818 1.10059 3.58739H13.899C13.4399 2.83821 12.8529 2.17602 12.1684 1.63086Z" fill="#0052B4"/>
<path d="M2.83112 13.3706H12.1684C12.8529 12.8254 13.4399 12.1633 13.899 11.4141H1.10059C1.5597 12.1632 2.14669 12.8254 2.83112 13.3706Z" fill="#0052B4"/>
</svg>
