<svg width="31" height="30" viewBox="0 0 31 30" fill="none" xmlns="http://www.w3.org/2000/svg">
<path d="M15.009 0C8.74492 0 6.91292 0.00646208 6.55681 0.036003C5.27132 0.142858 4.4714 0.34526 3.59995 0.779143C2.92835 1.11263 2.39869 1.4992 1.87595 2.0411C0.92395 3.02933 0.346978 4.24513 0.138114 5.69033C0.0365672 6.39193 0.00702624 6.53502 0.00102573 10.1187C-0.00128216 11.3133 0.00102573 12.8854 0.00102573 14.9941C0.00102573 21.2531 0.00794939 23.0833 0.0379519 23.4387C0.141807 24.6896 0.337977 25.4765 0.753397 26.3374C1.54731 27.9852 3.06359 29.2222 4.8499 29.6838C5.46841 29.8431 6.15155 29.9308 7.02854 29.9723C7.40011 29.9885 11.1874 30 14.9769 30C18.7665 30 22.556 29.9954 22.9184 29.9769C23.9338 29.9292 24.5235 29.85 25.1755 29.6815C26.9733 29.2176 28.4619 27.9991 29.272 26.3282C29.6793 25.4881 29.8859 24.6711 29.9793 23.4855C29.9996 23.227 30.0082 19.1058 30.0082 14.9902C30.0082 10.8738 29.999 6.76026 29.9786 6.50178C29.884 5.29706 29.6775 4.487 29.257 3.63077C28.9119 2.92986 28.5288 2.40643 27.9726 1.87124C26.98 0.923155 25.7661 0.346183 24.3195 0.13755C23.6186 0.0362338 23.4789 0.0062313 19.8925 0H15.009Z" fill="url(#paint0_radial)"/>
<path d="M15.009 0C8.74492 0 6.91292 0.00646208 6.55681 0.036003C5.27132 0.142858 4.4714 0.34526 3.59995 0.779143C2.92835 1.11263 2.39869 1.4992 1.87595 2.0411C0.92395 3.02933 0.346978 4.24513 0.138114 5.69033C0.0365672 6.39193 0.00702624 6.53502 0.00102573 10.1187C-0.00128216 11.3133 0.00102573 12.8854 0.00102573 14.9941C0.00102573 21.2531 0.00794939 23.0833 0.0379519 23.4387C0.141807 24.6896 0.337977 25.4765 0.753397 26.3374C1.54731 27.9852 3.06359 29.2222 4.8499 29.6838C5.46841 29.8431 6.15155 29.9308 7.02854 29.9723C7.40011 29.9885 11.1874 30 14.9769 30C18.7665 30 22.556 29.9954 22.9184 29.9769C23.9338 29.9292 24.5235 29.85 25.1755 29.6815C26.9733 29.2176 28.4619 27.9991 29.272 26.3282C29.6793 25.4881 29.8859 24.6711 29.9793 23.4855C29.9996 23.227 30.0082 19.1058 30.0082 14.9902C30.0082 10.8738 29.999 6.76026 29.9786 6.50178C29.884 5.29706 29.6775 4.487 29.257 3.63077C28.9119 2.92986 28.5288 2.40643 27.9726 1.87124C26.98 0.923155 25.7661 0.346183 24.3195 0.13755C23.6186 0.0362338 23.4789 0.0062313 19.8925 0H15.009Z" fill="url(#paint1_radial)"/>
<path d="M15.0021 3.92334C11.9936 3.92334 11.616 3.9365 10.4344 3.99027C9.25502 4.04427 8.45003 4.23098 7.74566 4.50493C7.01706 4.78787 6.39901 5.16637 5.78327 5.78234C5.16706 6.39809 4.78857 7.01614 4.5047 7.74451C4.23006 8.44911 4.04312 9.25433 3.99004 10.4332C3.93719 11.6148 3.92334 11.9926 3.92334 15.0012C3.92334 18.0098 3.93673 18.3862 3.99027 19.5678C4.0445 20.7471 4.23121 21.5521 4.50493 22.2565C4.78811 22.9851 5.1666 23.6032 5.78257 24.2189C6.39809 24.8351 7.01614 25.2145 7.74428 25.4975C8.44911 25.7714 9.25433 25.9581 10.4334 26.0121C11.6151 26.0659 11.9924 26.0791 15.0007 26.0791C18.0095 26.0791 18.3859 26.0659 19.5676 26.0121C20.7469 25.9581 21.5528 25.7714 22.2577 25.4975C22.986 25.2145 23.6032 24.8351 24.2187 24.2189C24.8349 23.6032 25.2134 22.9851 25.4972 22.2567C25.7696 21.5521 25.9565 20.7469 26.0119 19.568C26.065 18.3864 26.0788 18.0098 26.0788 15.0012C26.0788 11.9926 26.065 11.6151 26.0119 10.4334C25.9565 9.2541 25.7696 8.44911 25.4972 7.74474C25.2134 7.01614 24.8349 6.39809 24.2187 5.78234C23.6025 5.16614 22.9863 4.78764 22.257 4.50493C21.5508 4.23098 20.7453 4.04427 19.566 3.99027C18.3843 3.9365 18.0081 3.92334 14.9987 3.92334H15.0021ZM14.0083 5.91966C14.3033 5.9192 14.6324 5.91966 15.0021 5.91966C17.9599 5.91966 18.3105 5.93028 19.4785 5.98336C20.5586 6.03275 21.1448 6.21323 21.5353 6.36485C22.0523 6.56564 22.4208 6.80566 22.8083 7.19339C23.196 7.58111 23.4361 7.95037 23.6373 8.46734C23.7889 8.85737 23.9697 9.44358 24.0188 10.5237C24.0719 11.6915 24.0834 12.0423 24.0834 14.9987C24.0834 17.9551 24.0719 18.3059 24.0188 19.4737C23.9694 20.5537 23.7889 21.14 23.6373 21.53C23.4365 22.047 23.196 22.4151 22.8083 22.8026C22.4206 23.1903 22.0525 23.4303 21.5353 23.6311C21.1453 23.7834 20.5586 23.9634 19.4785 24.0128C18.3107 24.0659 17.9599 24.0774 15.0021 24.0774C12.0441 24.0774 11.6935 24.0659 10.5257 24.0128C9.44565 23.963 8.85945 23.7825 8.46872 23.6309C7.95176 23.4301 7.5825 23.19 7.19477 22.8023C6.80705 22.4146 6.56703 22.0463 6.36578 21.5291C6.21415 21.139 6.03344 20.5528 5.98428 19.4727C5.9312 18.3049 5.92059 17.9541 5.92059 14.9959C5.92059 12.0376 5.9312 11.6887 5.98428 10.5209C6.03367 9.44081 6.21415 8.8546 6.36578 8.46411C6.56656 7.94714 6.80705 7.57788 7.19477 7.19015C7.5825 6.80243 7.95176 6.56241 8.46872 6.36116C8.85922 6.20884 9.44565 6.02883 10.5257 5.97921C11.5477 5.93305 11.9437 5.9192 14.0083 5.91689V5.91966ZM20.9154 7.75905C20.1815 7.75905 19.5861 8.35379 19.5861 9.08793C19.5861 9.82184 20.1815 10.4173 20.9154 10.4173C21.6493 10.4173 22.2447 9.82184 22.2447 9.08793C22.2447 8.35402 21.6493 7.75859 20.9154 7.75859V7.75905ZM15.0021 9.31226C11.8604 9.31226 9.31318 11.8595 9.31318 15.0012C9.31318 18.1429 11.8604 20.689 15.0021 20.689C18.1439 20.689 20.6901 18.1429 20.6901 15.0012C20.6901 11.8595 18.1436 9.31226 15.0019 9.31226H15.0021ZM15.0021 11.3086C17.0414 11.3086 18.6947 12.9617 18.6947 15.0012C18.6947 17.0405 17.0414 18.6938 15.0021 18.6938C12.9626 18.6938 11.3095 17.0405 11.3095 15.0012C11.3095 12.9617 12.9626 11.3086 15.0021 11.3086Z" fill="white"/>
<defs>
<radialGradient id="paint0_radial" cx="0" cy="0" r="1" gradientUnits="userSpaceOnUse" gradientTransform="translate(7.97096 32.3106) rotate(-90) scale(29.7322 27.6608)">
<stop stop-color="#FFDD55"/>
<stop offset="0.1" stop-color="#FFDD55"/>
<stop offset="0.5" stop-color="#FF543E"/>
<stop offset="1" stop-color="#C837AB"/>
</radialGradient>
<radialGradient id="paint1_radial" cx="0" cy="0" r="1" gradientUnits="userSpaceOnUse" gradientTransform="translate(-5.02653 2.16115) rotate(78.6776) scale(13.2906 54.7981)">
<stop stop-color="#3771C8"/>
<stop offset="0.128" stop-color="#3771C8"/>
<stop offset="1" stop-color="#6600FF" stop-opacity="0"/>
</radialGradient>
</defs>
</svg>
