<svg width="192" height="51" viewBox="0 0 192 51" fill="none" xmlns="http://www.w3.org/2000/svg">
<rect x="18.7349" y="14.9903" width="17.275" height="17.275" fill="#FF6600" stroke="#4F4F4F" stroke-width="0.973237"/>
<rect x="0.486618" y="33.2386" width="17.275" height="17.275" fill="#5061FF" stroke="#4F4F4F" stroke-width="0.973237"/>
<path d="M0 32.752H36.4964" stroke="#4F4F4F" stroke-width="1.82482"/>
<path d="M18.2483 51L18.2483 14.5036" stroke="#4F4F4F" stroke-width="1.82482"/>
<rect x="0.912409" y="15.4161" width="34.6716" height="34.6716" stroke="#4F4F4F" stroke-width="1.82482"/>
<path d="M0.912354 14.8078C0.912354 8.81736 7.42171 1 18.0115 1C29.0746 1 35.5839 9.62384 35.5839 14.9903" stroke="#4F4F4F" stroke-width="1.82482"/>
<path d="M57.676 42.8291V43H54.927V42.8291C55.2167 42.7738 55.412 42.6891 55.5129 42.5752C55.6139 42.4613 55.6643 42.2529 55.6643 41.9502V37.4824H55.0784C54.7236 37.4824 54.442 37.5589 54.2336 37.7119C54.0286 37.8649 53.8756 38.1074 53.7747 38.4395H53.6086L53.6672 37.0283H53.8479C53.9749 37.1097 54.1669 37.1504 54.4241 37.1504H58.1985C58.4622 37.1504 58.6542 37.1097 58.7747 37.0283H58.9553L59.0139 38.4395H58.8479C58.747 38.1074 58.5924 37.8649 58.384 37.7119C58.179 37.5589 57.899 37.4824 57.5442 37.4824H56.9583V41.96C56.9583 42.2464 57.0087 42.4515 57.1096 42.5752C57.2105 42.6956 57.3993 42.7803 57.676 42.8291ZM65.7083 40.0801C65.7083 40.9753 65.4088 41.7109 64.8098 42.2871C64.2109 42.8633 63.4459 43.1514 62.5149 43.1514C61.5872 43.1514 60.8254 42.8633 60.2297 42.2871C59.634 41.7109 59.3362 40.9753 59.3362 40.0801C59.3362 39.1849 59.634 38.4476 60.2297 37.8682C60.8287 37.2887 61.5904 36.999 62.5149 36.999C63.4459 36.999 64.2109 37.2887 64.8098 37.8682C65.4088 38.4476 65.7083 39.1849 65.7083 40.0801ZM64.3069 40.1191C64.3069 39.2109 64.1539 38.5192 63.8479 38.0439C63.5452 37.5687 63.1008 37.3311 62.5149 37.3311C61.9355 37.3311 61.4944 37.5687 61.1917 38.0439C60.8889 38.5192 60.7375 39.2142 60.7375 40.1289C60.7375 40.9785 60.8905 41.6393 61.1965 42.1113C61.5025 42.5833 61.942 42.8193 62.5149 42.8193C63.078 42.8193 63.5175 42.585 63.8333 42.1162C64.149 41.6475 64.3069 40.9818 64.3069 40.1191ZM66.4211 37.1504H69.4241C70.0426 37.1504 70.5292 37.2936 70.884 37.5801C71.2421 37.8665 71.4211 38.2393 71.4211 38.6982C71.4211 39.193 71.2226 39.5983 70.8254 39.9141C70.4316 40.2298 69.8879 40.3877 69.1946 40.3877C68.9537 40.3877 68.7063 40.3714 68.4524 40.3389V42.0088C68.4524 42.2725 68.5045 42.4629 68.6086 42.5801C68.7161 42.6973 68.9081 42.7803 69.1848 42.8291V43H66.4211V42.8291C66.7174 42.7705 66.9143 42.6826 67.012 42.5654C67.1129 42.445 67.1633 42.2367 67.1633 41.9404V38.1221C67.1633 37.8551 67.1161 37.6712 67.0217 37.5703C66.9273 37.4694 66.7271 37.3864 66.4211 37.3213V37.1504ZM68.9456 37.4824H68.4524V39.9922C68.6021 40.0378 68.7454 40.0605 68.8821 40.0605C69.2402 40.0605 69.5201 39.9466 69.7219 39.7188C69.9237 39.4876 70.0247 39.1654 70.0247 38.752C70.0247 38.3743 69.9254 38.0684 69.7268 37.834C69.5282 37.5996 69.2678 37.4824 68.9456 37.4824ZM78.3694 43.0195L79.717 44.3477C79.9612 44.5918 80.176 44.7513 80.3616 44.8262C80.5504 44.9043 80.8059 44.945 81.1282 44.9482V45.1289C80.8319 45.2103 80.5097 45.251 80.1614 45.251C79.6829 45.251 79.2597 45.1696 78.8918 45.0068C78.5273 44.8441 78.1562 44.5723 77.7786 44.1914L76.9973 43.4004C76.8346 43.2344 76.5758 43.0846 76.2209 42.9512C75.762 42.7786 75.3909 42.5573 75.1077 42.2871C74.8277 42.0169 74.608 41.6865 74.4485 41.2959C74.289 40.902 74.2092 40.4935 74.2092 40.0703C74.2092 39.1784 74.5071 38.4443 75.1028 37.8682C75.7017 37.2887 76.4635 36.999 77.3879 36.999C78.3157 36.999 79.079 37.2887 79.678 37.8682C80.2802 38.4443 80.5813 39.1784 80.5813 40.0703C80.5813 40.7767 80.3844 41.3952 79.9905 41.9258C79.5966 42.4564 79.0562 42.821 78.3694 43.0195ZM79.1799 40.0703C79.1799 39.2012 79.0237 38.5273 78.7112 38.0488C78.3987 37.5703 77.9576 37.3311 77.3879 37.3311C76.8118 37.3311 76.3707 37.5736 76.0647 38.0586C75.762 38.5404 75.6106 39.2337 75.6106 40.1387C75.6106 40.985 75.7636 41.6442 76.0696 42.1162C76.3756 42.585 76.815 42.8193 77.3879 42.8193C77.9576 42.8193 78.3987 42.5801 78.7112 42.1016C79.0237 41.623 79.1799 40.946 79.1799 40.0703ZM85.6936 43V42.2188C85.3355 42.5768 85.023 42.8226 84.7561 42.9561C84.4924 43.0863 84.1767 43.1514 83.8088 43.1514C83.1969 43.1514 82.7086 42.9756 82.344 42.624C81.9827 42.2725 81.802 41.8005 81.802 41.208V38.1416C81.802 37.8779 81.7532 37.694 81.6555 37.5898C81.5611 37.4824 81.3625 37.3929 81.0598 37.3213V37.1504H83.8333V37.3213C83.537 37.3896 83.3385 37.4792 83.2375 37.5898C83.1399 37.6973 83.0911 37.8975 83.0911 38.1904V41.4619C83.0911 41.82 83.1887 42.1016 83.384 42.3066C83.5793 42.5085 83.8479 42.6094 84.1897 42.6094C84.6715 42.6094 85.1728 42.3392 85.6936 41.7988V38.1416C85.6936 37.8779 85.6464 37.694 85.552 37.5898C85.4576 37.4857 85.2574 37.3962 84.9514 37.3213V37.1504H87.72V37.3213C87.4368 37.3799 87.2431 37.4661 87.1389 37.5801C87.0347 37.6908 86.9827 37.917 86.9827 38.2588V42.0088C86.9827 42.2725 87.0299 42.4564 87.1243 42.5605C87.2187 42.6647 87.4172 42.7542 87.72 42.8291V43H85.6936ZM91.3772 43V42.8291C91.6181 42.7835 91.7874 42.7282 91.885 42.6631C91.9859 42.5947 92.0364 42.5003 92.0364 42.3799C92.0364 42.2822 91.9989 42.1325 91.9241 41.9307L91.5872 41.0322H89.5071L89.2141 41.8086C89.1392 42.0072 89.1018 42.1667 89.1018 42.2871C89.1018 42.5443 89.2971 42.7249 89.6877 42.8291V43H87.7981V42.8291C88.026 42.79 88.2245 42.6712 88.3938 42.4727C88.5631 42.2741 88.7307 41.9502 88.8967 41.501L90.5764 36.999H91.3772L93.1545 41.6816C93.3173 42.0983 93.4768 42.3896 93.6331 42.5557C93.7893 42.7184 93.9928 42.8096 94.2434 42.8291V43H91.3772ZM89.6877 40.6123H91.426L90.5374 38.2393L89.6877 40.6123ZM97.4661 37.1504V37.3213C97.1536 37.3994 96.9517 37.4889 96.8606 37.5898C96.7694 37.6908 96.7239 37.86 96.7239 38.0977V42.0381C96.7239 42.2822 96.7874 42.4482 96.9143 42.5361C97.0445 42.624 97.2887 42.668 97.6467 42.668C98.0211 42.668 98.3108 42.5866 98.5159 42.4238C98.7242 42.2578 98.9407 41.9437 99.1653 41.4814H99.3362L99.1653 43H94.6975V42.8291C95.01 42.751 95.2102 42.6582 95.2981 42.5508C95.3892 42.4434 95.4348 42.2204 95.4348 41.8818V38.1416C95.4348 37.8779 95.386 37.694 95.2883 37.5898C95.1939 37.4824 94.997 37.3929 94.6975 37.3213V37.1504H97.4661ZM102.661 37.1504V37.3213C102.372 37.3864 102.176 37.4743 102.075 37.585C101.975 37.6924 101.924 37.917 101.924 38.2588V42.0088C101.924 42.2725 101.971 42.4564 102.066 42.5605C102.16 42.6647 102.359 42.7542 102.661 42.8291V43H99.8928V42.8291C100.101 42.777 100.256 42.7201 100.357 42.6582C100.461 42.5964 100.532 42.5182 100.572 42.4238C100.614 42.3294 100.635 42.1488 100.635 41.8818V38.1416C100.635 37.8779 100.586 37.694 100.489 37.5898C100.394 37.4824 100.196 37.3929 99.8928 37.3213V37.1504H102.661ZM107.285 42.8291V43H104.536V42.8291C104.826 42.7738 105.021 42.6891 105.122 42.5752C105.223 42.4613 105.274 42.2529 105.274 41.9502V37.4824H104.688C104.333 37.4824 104.051 37.5589 103.843 37.7119C103.638 37.8649 103.485 38.1074 103.384 38.4395H103.218L103.277 37.0283H103.457C103.584 37.1097 103.776 37.1504 104.033 37.1504H107.808C108.072 37.1504 108.264 37.1097 108.384 37.0283H108.565L108.623 38.4395H108.457C108.356 38.1074 108.202 37.8649 107.993 37.7119C107.788 37.5589 107.508 37.4824 107.154 37.4824H106.568V41.96C106.568 42.2464 106.618 42.4515 106.719 42.5752C106.82 42.6956 107.009 42.7803 107.285 42.8291ZM113.892 37.9512L112.51 39.9189V42.0088C112.51 42.2692 112.562 42.458 112.666 42.5752C112.77 42.6924 112.966 42.777 113.252 42.8291V43H110.479V42.8291C110.749 42.79 110.939 42.707 111.05 42.5801C111.164 42.4499 111.221 42.2464 111.221 41.9697V40.2607L109.702 37.9316C109.553 37.707 109.421 37.554 109.307 37.4727C109.196 37.3913 109.051 37.3408 108.872 37.3213V37.1504H111.538V37.3213C111.255 37.3343 111.114 37.4287 111.114 37.6045C111.114 37.7152 111.169 37.8568 111.28 38.0293L112.29 39.5918L113.179 38.3076C113.319 38.1058 113.389 37.9268 113.389 37.7705C113.389 37.5426 113.239 37.3929 112.94 37.3213V37.1504H114.751V37.3213C114.448 37.3506 114.162 37.5605 113.892 37.9512ZM121.397 39.1279H121.568V40.9395H121.397C121.351 40.679 121.258 40.4935 121.118 40.3828C120.978 40.2689 120.768 40.2119 120.489 40.2119H119.58V42.0186C119.58 42.279 119.632 42.4678 119.737 42.585C119.841 42.7021 120.028 42.7835 120.298 42.8291V43H117.549V42.8291C117.839 42.7835 118.034 42.6989 118.135 42.5752C118.236 42.4482 118.286 42.2171 118.286 41.8818V38.1123C118.286 37.8747 118.238 37.7038 118.14 37.5996C118.045 37.4954 117.849 37.4027 117.549 37.3213V37.1504H121.699L121.817 38.249H121.651C121.546 37.9756 121.413 37.7803 121.25 37.6631C121.087 37.5426 120.868 37.4824 120.591 37.4824H119.58V39.8799H120.489C120.752 39.8799 120.949 39.8262 121.079 39.7188C121.213 39.6113 121.319 39.4144 121.397 39.1279ZM128.726 40.0801C128.726 40.9753 128.426 41.7109 127.827 42.2871C127.228 42.8633 126.463 43.1514 125.532 43.1514C124.605 43.1514 123.843 42.8633 123.247 42.2871C122.652 41.7109 122.354 40.9753 122.354 40.0801C122.354 39.1849 122.652 38.4476 123.247 37.8682C123.846 37.2887 124.608 36.999 125.532 36.999C126.463 36.999 127.228 37.2887 127.827 37.8682C128.426 38.4476 128.726 39.1849 128.726 40.0801ZM127.324 40.1191C127.324 39.2109 127.171 38.5192 126.865 38.0439C126.563 37.5687 126.118 37.3311 125.532 37.3311C124.953 37.3311 124.512 37.5687 124.209 38.0439C123.906 38.5192 123.755 39.2142 123.755 40.1289C123.755 40.9785 123.908 41.6393 124.214 42.1113C124.52 42.5833 124.96 42.8193 125.532 42.8193C126.096 42.8193 126.535 42.585 126.851 42.1162C127.167 41.6475 127.324 40.9818 127.324 40.1191ZM129.409 43V42.8291C129.904 42.79 130.152 42.541 130.152 42.082V38.1221C130.152 37.8519 130.1 37.6647 129.995 37.5605C129.894 37.4564 129.699 37.3766 129.409 37.3213V37.1504H132.193C132.922 37.1504 133.482 37.279 133.872 37.5361C134.266 37.7933 134.463 38.1546 134.463 38.6201C134.463 38.9554 134.361 39.2435 134.156 39.4844C133.954 39.7253 133.662 39.901 133.281 40.0117V40.0312C133.418 40.0638 133.566 40.1777 133.726 40.373C133.885 40.5651 134.116 40.9443 134.419 41.5107C134.715 42.0609 134.93 42.4092 135.064 42.5557C135.2 42.7021 135.386 42.7933 135.62 42.8291V43H133.931C133.71 42.7396 133.426 42.266 133.081 41.5791C132.844 41.1071 132.666 40.793 132.549 40.6367C132.435 40.4805 132.315 40.3714 132.188 40.3096C132.064 40.2445 131.815 40.2119 131.441 40.2119V42.0088C131.441 42.266 131.498 42.458 131.612 42.585C131.726 42.7087 131.919 42.79 132.193 42.8291V43H129.409ZM131.841 37.4824H131.441V39.8799C131.542 39.8864 131.636 39.8896 131.724 39.8896C132.189 39.8896 132.528 39.7904 132.74 39.5918C132.954 39.39 133.062 39.0726 133.062 38.6396C133.062 37.8682 132.655 37.4824 131.841 37.4824ZM141.807 43H138.281V42.8291C138.587 42.7673 138.786 42.6794 138.877 42.5654C138.972 42.4482 139.019 42.2627 139.019 42.0088V38.1221C139.019 37.8551 138.967 37.6663 138.863 37.5557C138.762 37.4417 138.568 37.3636 138.281 37.3213V37.1504H141.367C141.999 37.1504 142.492 37.2708 142.847 37.5117C143.202 37.7493 143.379 38.0863 143.379 38.5225C143.379 39.1995 142.946 39.6585 142.08 39.8994V39.9189C143.187 40.1208 143.74 40.6351 143.74 41.4619C143.74 41.9209 143.565 42.292 143.213 42.5752C142.862 42.8584 142.393 43 141.807 43ZM140.308 37.4824V39.8311H140.781C141.156 39.8311 141.449 39.7269 141.66 39.5186C141.872 39.3102 141.978 39.0205 141.978 38.6494C141.978 37.8714 141.548 37.4824 140.689 37.4824H140.308ZM141.001 40.1582H140.308V41.9502C140.308 42.2106 140.373 42.3962 140.503 42.5068C140.633 42.6143 140.851 42.668 141.157 42.668C141.525 42.668 141.813 42.5589 142.022 42.3408C142.233 42.1195 142.339 41.8151 142.339 41.4277C142.339 41.0436 142.22 40.736 141.983 40.5049C141.748 40.2738 141.421 40.1582 141.001 40.1582ZM148.301 39.1719H148.491V40.9785H148.301C148.233 40.4805 147.962 40.2314 147.49 40.2314H146.46V41.9502C146.46 42.2139 146.52 42.3994 146.641 42.5068C146.761 42.6143 146.968 42.668 147.261 42.668H147.603C148.176 42.668 148.586 42.305 148.833 41.5791H148.999L148.892 43H144.434V42.8291C144.73 42.7673 144.927 42.6794 145.025 42.5654C145.122 42.4482 145.171 42.2236 145.171 41.8916V38.1318C145.171 37.8584 145.121 37.6696 145.02 37.5654C144.919 37.458 144.724 37.3766 144.434 37.3213V37.1504H148.823V38.4492H148.653C148.555 38.0684 148.433 37.8128 148.286 37.6826C148.143 37.5492 147.912 37.4824 147.593 37.4824H146.46V39.8994H147.49C147.725 39.8994 147.904 39.8441 148.028 39.7334C148.151 39.6227 148.242 39.4355 148.301 39.1719ZM153.028 36.999V38.542H152.862C152.748 38.2002 152.551 37.9137 152.271 37.6826C151.994 37.4482 151.708 37.3311 151.411 37.3311C151.144 37.3311 150.917 37.4076 150.728 37.5605C150.542 37.7135 150.449 37.9007 150.449 38.1221C150.449 38.2295 150.474 38.3369 150.523 38.4443C150.572 38.5485 150.642 38.6462 150.733 38.7373C150.827 38.8285 151.127 39.0319 151.631 39.3477C152.145 39.6634 152.477 39.8831 152.627 40.0068C152.777 40.1305 152.92 40.2884 153.057 40.4805C153.265 40.7767 153.369 41.1006 153.369 41.4521C153.369 41.973 153.185 42.3864 152.818 42.6924C152.453 42.9984 152.01 43.1514 151.49 43.1514C151.21 43.1514 150.876 43.1009 150.489 43C150.283 42.9479 150.14 42.9219 150.059 42.9219C149.922 42.9219 149.823 42.9854 149.761 43.1123H149.59V41.3496H149.761C149.849 41.8053 150.031 42.165 150.308 42.4287C150.585 42.6891 150.925 42.8193 151.328 42.8193C151.641 42.8193 151.898 42.7412 152.1 42.585C152.305 42.4287 152.407 42.2301 152.407 41.9893C152.407 41.7939 152.342 41.61 152.212 41.4375C152.082 41.2617 151.734 41.0046 151.167 40.666C150.646 40.3535 150.301 40.1126 150.132 39.9434C149.963 39.7741 149.834 39.5853 149.746 39.377C149.662 39.1654 149.619 38.9424 149.619 38.708C149.619 38.2067 149.79 37.7965 150.132 37.4775C150.477 37.1585 150.92 36.999 151.46 36.999C151.626 36.999 151.826 37.0267 152.061 37.082C152.295 37.1341 152.461 37.1602 152.559 37.1602C152.653 37.1602 152.754 37.1064 152.862 36.999H153.028ZM157.969 42.8291V43H155.22V42.8291C155.51 42.7738 155.705 42.6891 155.806 42.5752C155.907 42.4613 155.957 42.2529 155.957 41.9502V37.4824H155.371C155.017 37.4824 154.735 37.5589 154.527 37.7119C154.322 37.8649 154.169 38.1074 154.068 38.4395H153.902L153.96 37.0283H154.141C154.268 37.1097 154.46 37.1504 154.717 37.1504H158.491C158.755 37.1504 158.947 37.1097 159.068 37.0283H159.248L159.307 38.4395H159.141C159.04 38.1074 158.885 37.8649 158.677 37.7119C158.472 37.5589 158.192 37.4824 157.837 37.4824H157.251V41.96C157.251 42.2464 157.302 42.4515 157.403 42.5752C157.503 42.6956 157.692 42.7803 157.969 42.8291ZM161.978 37.1504H164.981C165.599 37.1504 166.086 37.2936 166.441 37.5801C166.799 37.8665 166.978 38.2393 166.978 38.6982C166.978 39.193 166.779 39.5983 166.382 39.9141C165.988 40.2298 165.445 40.3877 164.751 40.3877C164.51 40.3877 164.263 40.3714 164.009 40.3389V42.0088C164.009 42.2725 164.061 42.4629 164.165 42.5801C164.273 42.6973 164.465 42.7803 164.741 42.8291V43H161.978V42.8291C162.274 42.7705 162.471 42.6826 162.569 42.5654C162.67 42.445 162.72 42.2367 162.72 41.9404V38.1221C162.72 37.8551 162.673 37.6712 162.578 37.5703C162.484 37.4694 162.284 37.3864 161.978 37.3213V37.1504ZM164.502 37.4824H164.009V39.9922C164.159 40.0378 164.302 40.0605 164.439 40.0605C164.797 40.0605 165.077 39.9466 165.279 39.7188C165.48 39.4876 165.581 39.1654 165.581 38.752C165.581 38.3743 165.482 38.0684 165.283 37.834C165.085 37.5996 164.824 37.4824 164.502 37.4824ZM167.368 43V42.8291C167.863 42.79 168.111 42.541 168.111 42.082V38.1221C168.111 37.8519 168.059 37.6647 167.954 37.5605C167.853 37.4564 167.658 37.3766 167.368 37.3213V37.1504H170.152C170.881 37.1504 171.441 37.279 171.831 37.5361C172.225 37.7933 172.422 38.1546 172.422 38.6201C172.422 38.9554 172.32 39.2435 172.115 39.4844C171.913 39.7253 171.621 39.901 171.24 40.0117V40.0312C171.377 40.0638 171.525 40.1777 171.685 40.373C171.844 40.5651 172.075 40.9443 172.378 41.5107C172.674 42.0609 172.889 42.4092 173.023 42.5557C173.159 42.7021 173.345 42.7933 173.579 42.8291V43H171.89C171.669 42.7396 171.385 42.266 171.04 41.5791C170.803 41.1071 170.625 40.793 170.508 40.6367C170.394 40.4805 170.274 40.3714 170.147 40.3096C170.023 40.2445 169.774 40.2119 169.4 40.2119V42.0088C169.4 42.266 169.457 42.458 169.571 42.585C169.684 42.7087 169.878 42.79 170.152 42.8291V43H167.368ZM169.8 37.4824H169.4V39.8799C169.501 39.8864 169.595 39.8896 169.683 39.8896C170.148 39.8896 170.487 39.7904 170.698 39.5918C170.913 39.39 171.021 39.0726 171.021 38.6396C171.021 37.8682 170.614 37.4824 169.8 37.4824ZM176.87 37.1504V37.3213C176.581 37.3864 176.385 37.4743 176.284 37.585C176.184 37.6924 176.133 37.917 176.133 38.2588V42.0088C176.133 42.2725 176.18 42.4564 176.275 42.5605C176.369 42.6647 176.568 42.7542 176.87 42.8291V43H174.102V42.8291C174.31 42.777 174.465 42.7201 174.566 42.6582C174.67 42.5964 174.741 42.5182 174.781 42.4238C174.823 42.3294 174.844 42.1488 174.844 41.8818V38.1416C174.844 37.8779 174.795 37.694 174.698 37.5898C174.603 37.4824 174.405 37.3929 174.102 37.3213V37.1504H176.87ZM183.086 39.1914H182.925C182.792 38.6022 182.551 38.1449 182.202 37.8193C181.854 37.4938 181.431 37.3311 180.933 37.3311C180.389 37.3311 179.956 37.5605 179.634 38.0195C179.315 38.4785 179.156 39.0954 179.156 39.8701C179.156 40.7327 179.343 41.4001 179.717 41.8721C180.091 42.3441 180.607 42.5801 181.265 42.5801C181.62 42.5801 181.945 42.5068 182.241 42.3604C182.538 42.2139 182.839 41.9779 183.145 41.6523V41.96C182.565 42.7542 181.776 43.1514 180.777 43.1514C179.881 43.1514 179.154 42.8747 178.594 42.3213C178.034 41.7646 177.754 41.0436 177.754 40.1582C177.754 39.2598 178.055 38.5094 178.657 37.9072C179.263 37.3018 180.015 36.999 180.913 36.999C181.281 36.999 181.696 37.0804 182.158 37.2432C182.357 37.3148 182.492 37.3506 182.564 37.3506C182.707 37.3506 182.827 37.2497 182.925 37.0479H183.086V39.1914ZM187.656 39.1719H187.847V40.9785H187.656C187.588 40.4805 187.318 40.2314 186.846 40.2314H185.816V41.9502C185.816 42.2139 185.876 42.3994 185.996 42.5068C186.117 42.6143 186.323 42.668 186.616 42.668H186.958C187.531 42.668 187.941 42.305 188.189 41.5791H188.355L188.247 43H183.789V42.8291C184.086 42.7673 184.282 42.6794 184.38 42.5654C184.478 42.4482 184.527 42.2236 184.527 41.8916V38.1318C184.527 37.8584 184.476 37.6696 184.375 37.5654C184.274 37.458 184.079 37.3766 183.789 37.3213V37.1504H188.179V38.4492H188.008C187.91 38.0684 187.788 37.8128 187.642 37.6826C187.499 37.5492 187.267 37.4824 186.948 37.4824H185.816V39.8994H186.846C187.08 39.8994 187.259 39.8441 187.383 39.7334C187.507 39.6227 187.598 39.4355 187.656 39.1719Z" fill="#828282"/>
<path d="M59.4377 16.9492C58.8987 18.793 58.3557 20.6367 57.8088 22.4805C57.262 24.3242 56.719 26.1641 56.1799 28H53.9417L50.2151 13.2109H52.512L55.137 23.8398C55.676 22.0664 56.219 20.293 56.7659 18.5195C57.3206 16.7461 57.8674 14.9766 58.4065 13.2109H60.4924L63.7151 23.7461C63.9026 23.0117 64.0823 22.3008 64.2542 21.6133C64.426 20.9258 64.6096 20.2109 64.8049 19.4688C65.0706 18.4297 65.3362 17.3828 65.6018 16.3281C65.8674 15.2734 66.1252 14.2344 66.3752 13.2109H68.6721L64.9338 28H62.7073L59.4377 16.9492ZM72.2346 13.1758V15.2031H70.0198V13.1758H72.2346ZM72.2346 17.3359V28H70.0198V17.3359H72.2346ZM74.1682 17.3359H76.4065V18.3438C76.8987 17.9453 77.4299 17.6484 78.0002 17.4531C78.5706 17.2578 79.1487 17.1602 79.7346 17.1602C80.2815 17.1602 80.7698 17.2344 81.1995 17.3828C81.6292 17.5312 81.9924 17.7461 82.2893 18.0273C82.594 18.3086 82.8245 18.6484 82.9807 19.0469C83.137 19.4453 83.2151 19.8945 83.2151 20.3945V28H80.9885V20.5703C80.9885 20.2344 80.9534 19.9531 80.8831 19.7266C80.8127 19.4922 80.7112 19.3047 80.5784 19.1641C80.4456 19.0156 80.2815 18.9102 80.0862 18.8477C79.8987 18.7773 79.6838 18.7422 79.4417 18.7422C79.0198 18.7422 78.6252 18.8242 78.2581 18.9883C77.8909 19.1445 77.5667 19.3555 77.2854 19.6211C77.012 19.8867 76.7971 20.1953 76.6409 20.5469C76.4846 20.8906 76.4065 21.2461 76.4065 21.6133V28H74.1682V17.3359ZM92.1917 22.5273C92.176 22.0117 92.1096 21.5234 91.9924 21.0625C91.8831 20.6016 91.719 20.1992 91.5002 19.8555C91.2893 19.5117 91.0315 19.2422 90.7268 19.0469C90.4221 18.8438 90.0745 18.7422 89.6838 18.7422C89.2854 18.7422 88.9299 18.8477 88.6174 19.0586C88.3049 19.2617 88.0393 19.543 87.8206 19.9023C87.6096 20.2617 87.4456 20.6836 87.3284 21.168C87.219 21.6445 87.1643 22.1562 87.1643 22.7031C87.1643 23.25 87.219 23.7617 87.3284 24.2383C87.4456 24.7148 87.6096 25.1328 87.8206 25.4922C88.0393 25.8438 88.3049 26.1211 88.6174 26.3242C88.9299 26.5273 89.2854 26.6289 89.6838 26.6289C90.0823 26.6289 90.4377 26.5273 90.7502 26.3242C91.0627 26.1211 91.3245 25.8438 91.5354 25.4922C91.7463 25.1328 91.9065 24.7148 92.0159 24.2383C92.1331 23.7617 92.1917 23.25 92.1917 22.7031V22.5273ZM94.4065 28H92.1917V27.1797C91.8401 27.5078 91.4338 27.7656 90.9729 27.9531C90.5198 28.1406 90.0706 28.2344 89.6252 28.2344C88.8518 28.2344 88.1721 28.0898 87.5862 27.8008C87.0002 27.5117 86.5081 27.1172 86.1096 26.6172C85.719 26.1172 85.4221 25.5312 85.219 24.8594C85.0237 24.1875 84.926 23.4688 84.926 22.7031C84.926 21.9375 85.0237 21.2188 85.219 20.5469C85.4143 19.8672 85.7073 19.2773 86.0979 18.7773C86.4885 18.2773 86.9729 17.8828 87.551 17.5938C88.137 17.3047 88.8127 17.1602 89.5784 17.1602C90.0159 17.1602 90.4651 17.2539 90.926 17.4414C91.387 17.6289 91.8088 17.8906 92.1917 18.2266V13.1758H94.4065V28ZM96.1526 22.6797C96.1526 21.9219 96.262 21.207 96.4807 20.5352C96.7073 19.8633 97.0354 19.2773 97.4651 18.7773C97.8948 18.2773 98.4221 17.8828 99.0471 17.5938C99.6799 17.3047 100.403 17.1602 101.215 17.1602C102.035 17.1602 102.762 17.3047 103.395 17.5938C104.028 17.8828 104.563 18.2773 105 18.7773C105.438 19.2773 105.77 19.8633 105.996 20.5352C106.223 21.207 106.336 21.9219 106.336 22.6797C106.336 23.4453 106.223 24.1641 105.996 24.8359C105.77 25.5 105.438 26.082 105 26.582C104.563 27.0742 104.028 27.4648 103.395 27.7539C102.762 28.043 102.035 28.1875 101.215 28.1875C100.403 28.1875 99.6799 28.043 99.0471 27.7539C98.4221 27.4648 97.8948 27.0742 97.4651 26.582C97.0354 26.082 96.7073 25.5 96.4807 24.8359C96.262 24.1641 96.1526 23.4453 96.1526 22.6797ZM98.3792 22.6797C98.3792 23.2188 98.4456 23.7266 98.5784 24.2031C98.7112 24.6797 98.8987 25.0938 99.1409 25.4453C99.3909 25.7969 99.6877 26.0781 100.031 26.2891C100.383 26.4922 100.778 26.5938 101.215 26.5938C101.66 26.5938 102.059 26.4922 102.41 26.2891C102.762 26.0781 103.063 25.7969 103.313 25.4453C103.563 25.0938 103.754 24.6797 103.887 24.2031C104.02 23.7266 104.086 23.2188 104.086 22.6797C104.086 22.1406 104.02 21.6328 103.887 21.1562C103.754 20.6719 103.563 20.2539 103.313 19.9023C103.063 19.543 102.762 19.2617 102.41 19.0586C102.059 18.8477 101.66 18.7422 101.215 18.7422C100.778 18.7422 100.383 18.8477 100.031 19.0586C99.6877 19.2617 99.3909 19.543 99.1409 19.9023C98.8987 20.2539 98.7112 20.6719 98.5784 21.1562C98.4456 21.6328 98.3792 22.1406 98.3792 22.6797ZM108.082 22.6797C108.082 21.9219 108.192 21.207 108.41 20.5352C108.637 19.8633 108.965 19.2773 109.395 18.7773C109.824 18.2773 110.352 17.8828 110.977 17.5938C111.61 17.3047 112.332 17.1602 113.145 17.1602C113.965 17.1602 114.692 17.3047 115.324 17.5938C115.957 17.8828 116.492 18.2773 116.93 18.7773C117.367 19.2773 117.699 19.8633 117.926 20.5352C118.153 21.207 118.266 21.9219 118.266 22.6797C118.266 23.4453 118.153 24.1641 117.926 24.8359C117.699 25.5 117.367 26.082 116.93 26.582C116.492 27.0742 115.957 27.4648 115.324 27.7539C114.692 28.043 113.965 28.1875 113.145 28.1875C112.332 28.1875 111.61 28.043 110.977 27.7539C110.352 27.4648 109.824 27.0742 109.395 26.582C108.965 26.082 108.637 25.5 108.41 24.8359C108.192 24.1641 108.082 23.4453 108.082 22.6797ZM110.309 22.6797C110.309 23.2188 110.375 23.7266 110.508 24.2031C110.641 24.6797 110.828 25.0938 111.071 25.4453C111.321 25.7969 111.617 26.0781 111.961 26.2891C112.313 26.4922 112.707 26.5938 113.145 26.5938C113.59 26.5938 113.989 26.4922 114.34 26.2891C114.692 26.0781 114.992 25.7969 115.242 25.4453C115.492 25.0938 115.684 24.6797 115.817 24.2031C115.949 23.7266 116.016 23.2188 116.016 22.6797C116.016 22.1406 115.949 21.6328 115.817 21.1562C115.684 20.6719 115.492 20.2539 115.242 19.9023C114.992 19.543 114.692 19.2617 114.34 19.0586C113.989 18.8477 113.59 18.7422 113.145 18.7422C112.707 18.7422 112.313 18.8477 111.961 19.0586C111.617 19.2617 111.321 19.543 111.071 19.9023C110.828 20.2539 110.641 20.6719 110.508 21.1562C110.375 21.6328 110.309 22.1406 110.309 22.6797ZM119.965 17.3359H122.192L122.18 18.0508C122.774 17.457 123.539 17.1602 124.477 17.1602C124.61 17.1602 124.774 17.1797 124.969 17.2188C125.164 17.25 125.352 17.3008 125.531 17.3711V19.2344C124.93 19.0234 124.563 18.918 124.43 18.918C124.078 18.918 123.762 18.9922 123.481 19.1406C123.207 19.2812 122.973 19.4766 122.778 19.7266C122.59 19.9688 122.446 20.2539 122.344 20.582C122.242 20.9023 122.192 21.2422 122.192 21.6016V28H119.965V17.3359ZM128.906 24.543C128.914 24.9258 128.973 25.25 129.082 25.5156C129.192 25.7812 129.336 25.9961 129.516 26.1602C129.703 26.3242 129.918 26.4453 130.16 26.5234C130.41 26.5938 130.68 26.6289 130.969 26.6289C131.211 26.6289 131.465 26.6055 131.731 26.5586C131.996 26.5117 132.239 26.4336 132.457 26.3242C132.684 26.207 132.867 26.0508 133.008 25.8555C133.156 25.6523 133.231 25.3984 133.231 25.0938C133.231 24.8359 133.16 24.6133 133.02 24.4258C132.879 24.2383 132.692 24.0742 132.457 23.9336C132.231 23.7852 131.969 23.6562 131.672 23.5469C131.383 23.4297 131.086 23.3164 130.781 23.207C130.336 23.0586 129.887 22.8945 129.434 22.7148C128.989 22.5352 128.582 22.3203 128.215 22.0703C127.856 21.8203 127.563 21.5273 127.336 21.1914C127.11 20.8477 126.996 20.4414 126.996 19.9727C126.996 19.4961 127.106 19.082 127.324 18.7305C127.543 18.3711 127.836 18.0781 128.203 17.8516C128.571 17.6172 128.992 17.4453 129.469 17.3359C129.953 17.2188 130.453 17.1602 130.969 17.1602C131.555 17.1602 132.098 17.2227 132.598 17.3477C133.098 17.4648 133.531 17.6484 133.899 17.8984C134.274 18.1484 134.571 18.4688 134.789 18.8594C135.016 19.2422 135.141 19.6992 135.164 20.2305C135.125 20.2305 135.071 20.2305 135 20.2305C134.93 20.2305 134.852 20.2305 134.766 20.2305C134.688 20.2227 134.61 20.2188 134.531 20.2188C134.461 20.2188 134.406 20.2188 134.367 20.2188H132.926C132.887 19.9375 132.809 19.7031 132.692 19.5156C132.582 19.3281 132.438 19.1758 132.258 19.0586C132.086 18.9414 131.891 18.8594 131.672 18.8125C131.453 18.7656 131.219 18.7422 130.969 18.7422C130.406 18.7422 129.977 18.8594 129.68 19.0938C129.391 19.3203 129.246 19.6211 129.246 19.9961C129.246 20.2383 129.313 20.4492 129.446 20.6289C129.586 20.8086 129.77 20.9688 129.996 21.1094C130.223 21.25 130.485 21.3789 130.781 21.4961C131.078 21.6133 131.387 21.7266 131.707 21.8359C132.16 21.9922 132.61 22.1602 133.055 22.3398C133.508 22.5195 133.914 22.7305 134.274 22.9727C134.633 23.207 134.922 23.4844 135.141 23.8047C135.367 24.1172 135.481 24.4922 135.481 24.9297C135.481 25.5156 135.356 26.0156 135.106 26.4297C134.864 26.8438 134.535 27.1836 134.121 27.4492C133.707 27.707 133.227 27.8984 132.68 28.0234C132.141 28.1484 131.571 28.2109 130.969 28.2109C130.391 28.2109 129.84 28.1367 129.317 27.9883C128.801 27.832 128.348 27.6016 127.957 27.2969C127.567 26.9922 127.25 26.6133 127.008 26.1602C126.774 25.6992 126.645 25.1602 126.621 24.543H128.906ZM139.77 25.75V28H137.11V25.75H139.77Z" fill="#4F4F4F"/>
<path d="M149.25 16.9492C148.711 18.793 148.168 20.6367 147.621 22.4805C147.074 24.3242 146.531 26.1641 145.992 28H143.754L140.028 13.2109H142.324L144.949 23.8398C145.489 22.0664 146.031 20.293 146.578 18.5195C147.133 16.7461 147.68 14.9766 148.219 13.2109H150.305L153.528 23.7461C153.715 23.0117 153.895 22.3008 154.067 21.6133C154.239 20.9258 154.422 20.2109 154.617 19.4688C154.883 18.4297 155.149 17.3828 155.414 16.3281C155.68 15.2734 155.938 14.2344 156.188 13.2109H158.485L154.746 28H152.52L149.25 16.9492ZM158.028 22.6797C158.028 21.9219 158.137 21.207 158.356 20.5352C158.582 19.8633 158.91 19.2773 159.34 18.7773C159.77 18.2773 160.297 17.8828 160.922 17.5938C161.555 17.3047 162.278 17.1602 163.09 17.1602C163.91 17.1602 164.637 17.3047 165.27 17.5938C165.903 17.8828 166.438 18.2773 166.875 18.7773C167.313 19.2773 167.645 19.8633 167.871 20.5352C168.098 21.207 168.211 21.9219 168.211 22.6797C168.211 23.4453 168.098 24.1641 167.871 24.8359C167.645 25.5 167.313 26.082 166.875 26.582C166.438 27.0742 165.903 27.4648 165.27 27.7539C164.637 28.043 163.91 28.1875 163.09 28.1875C162.278 28.1875 161.555 28.043 160.922 27.7539C160.297 27.4648 159.77 27.0742 159.34 26.582C158.91 26.082 158.582 25.5 158.356 24.8359C158.137 24.1641 158.028 23.4453 158.028 22.6797ZM160.254 22.6797C160.254 23.2188 160.321 23.7266 160.453 24.2031C160.586 24.6797 160.774 25.0938 161.016 25.4453C161.266 25.7969 161.563 26.0781 161.906 26.2891C162.258 26.4922 162.653 26.5938 163.09 26.5938C163.535 26.5938 163.934 26.4922 164.285 26.2891C164.637 26.0781 164.938 25.7969 165.188 25.4453C165.438 25.0938 165.629 24.6797 165.762 24.2031C165.895 23.7266 165.961 23.2188 165.961 22.6797C165.961 22.1406 165.895 21.6328 165.762 21.1562C165.629 20.6719 165.438 20.2539 165.188 19.9023C164.938 19.543 164.637 19.2617 164.285 19.0586C163.934 18.8477 163.535 18.7422 163.09 18.7422C162.653 18.7422 162.258 18.8477 161.906 19.0586C161.563 19.2617 161.266 19.543 161.016 19.9023C160.774 20.2539 160.586 20.6719 160.453 21.1562C160.321 21.6328 160.254 22.1406 160.254 22.6797ZM169.91 17.3359H172.137L172.125 18.0508C172.719 17.457 173.485 17.1602 174.422 17.1602C174.555 17.1602 174.719 17.1797 174.914 17.2188C175.11 17.25 175.297 17.3008 175.477 17.3711V19.2344C174.875 19.0234 174.508 18.918 174.375 18.918C174.024 18.918 173.707 18.9922 173.426 19.1406C173.153 19.2812 172.918 19.4766 172.723 19.7266C172.535 19.9688 172.391 20.2539 172.289 20.582C172.188 20.9023 172.137 21.2422 172.137 21.6016V28H169.91V17.3359ZM179.156 13.1758V28H176.942V13.1758H179.156ZM188.356 22.5273C188.34 22.0117 188.274 21.5234 188.156 21.0625C188.047 20.6016 187.883 20.1992 187.664 19.8555C187.453 19.5117 187.196 19.2422 186.891 19.0469C186.586 18.8438 186.239 18.7422 185.848 18.7422C185.449 18.7422 185.094 18.8477 184.781 19.0586C184.469 19.2617 184.203 19.543 183.985 19.9023C183.774 20.2617 183.61 20.6836 183.492 21.168C183.383 21.6445 183.328 22.1562 183.328 22.7031C183.328 23.25 183.383 23.7617 183.492 24.2383C183.61 24.7148 183.774 25.1328 183.985 25.4922C184.203 25.8438 184.469 26.1211 184.781 26.3242C185.094 26.5273 185.449 26.6289 185.848 26.6289C186.246 26.6289 186.602 26.5273 186.914 26.3242C187.227 26.1211 187.489 25.8438 187.699 25.4922C187.91 25.1328 188.071 24.7148 188.18 24.2383C188.297 23.7617 188.356 23.25 188.356 22.7031V22.5273ZM190.571 28H188.356V27.1797C188.004 27.5078 187.598 27.7656 187.137 27.9531C186.684 28.1406 186.235 28.2344 185.789 28.2344C185.016 28.2344 184.336 28.0898 183.75 27.8008C183.164 27.5117 182.672 27.1172 182.274 26.6172C181.883 26.1172 181.586 25.5312 181.383 24.8594C181.188 24.1875 181.09 23.4688 181.09 22.7031C181.09 21.9375 181.188 21.2188 181.383 20.5469C181.578 19.8672 181.871 19.2773 182.262 18.7773C182.653 18.2773 183.137 17.8828 183.715 17.5938C184.301 17.3047 184.977 17.1602 185.742 17.1602C186.18 17.1602 186.629 17.2539 187.09 17.4414C187.551 17.6289 187.973 17.8906 188.356 18.2266V13.1758H190.571V28Z" fill="#5061FF"/>
</svg>
