<svg width="30" height="30" viewBox="0 0 30 30" fill="none" xmlns="http://www.w3.org/2000/svg">
<path d="M20.818 9.86788L9.81397 16.6927C9.62024 16.8128 9.53209 17.0488 9.5997 17.2665L11.0758 22.0228C11.1068 22.1227 11.2524 22.109 11.2641 22.005L11.6229 18.8157C11.6367 18.6925 11.6958 18.5788 11.7887 18.4967L21.1071 10.2565C21.3302 10.0592 21.0711 9.71088 20.818 9.86788Z" fill="#229FD9"/>
<path d="M5 0C2.23858 0 0 2.23858 0 5V25C0 27.7614 2.23858 30 5 30H25C27.7614 30 30 27.7614 30 25V5C30 2.23858 27.7614 0 25 0H5ZM25.007 7.79526L21.5819 24.1707C21.4211 24.9391 20.5199 25.2843 19.887 24.8197L14.7156 21.0237L12.0799 23.7148C11.6173 24.1872 10.8182 23.996 10.6195 23.3654L8.71698 17.3286L3.61917 15.8232C2.95036 15.6257 2.91093 14.6933 3.56072 14.44L23.6221 6.62233C24.3857 6.32478 25.1748 6.99307 25.007 7.79526Z" fill="#229FD9"/>
</svg>
