<svg width="30" height="30" viewBox="0 0 30 30" fill="none" xmlns="http://www.w3.org/2000/svg">
<path d="M19.4901 6.93705C16.5107 6.37027 13.4892 6.37027 10.5091 6.93705C9.20573 7.22735 7.56595 8.79867 7.24537 10.0626C6.71216 12.5081 6.71216 14.9872 7.24537 17.4327C7.56595 18.6966 9.20573 20.2679 10.5091 20.5582C10.5095 20.5583 10.5098 20.5584 10.5101 20.5584C10.5682 20.5698 10.6105 20.6201 10.6105 20.6793V24.2618C10.6105 24.4409 10.8291 24.5291 10.9535 24.3994L12.6551 22.653C12.6551 22.653 14.0111 21.261 14.255 21.0107C14.2788 20.9862 14.3117 20.973 14.3458 20.9739C16.0639 21.0215 17.7838 20.8827 19.4901 20.5583C20.7935 20.268 22.4339 18.6967 22.7539 17.4328C23.2877 14.9873 23.2877 12.5082 22.7539 10.0626C22.4339 8.79867 20.7941 7.22735 19.4901 6.93705ZM19.5355 17.6151C19.2748 18.1686 18.8955 18.6291 18.3484 18.923C18.194 19.0059 18.0095 19.0327 17.8352 19.0864C17.6349 19.0256 17.4439 18.9847 17.2665 18.9111C15.4289 18.1487 13.7376 17.1651 12.3979 15.6573C11.6361 14.7998 11.0398 13.8318 10.5358 12.8074C10.2968 12.3216 10.0953 11.8168 9.89002 11.3152C9.70274 10.8578 9.97856 10.3853 10.2689 10.0407C10.5414 9.71731 10.892 9.46979 11.2717 9.28738C11.568 9.145 11.8604 9.22708 12.0768 9.47829C12.5447 10.0214 12.9745 10.5922 13.3226 11.2217C13.5366 11.609 13.4779 12.0823 13.09 12.3458C12.9957 12.4098 12.9098 12.485 12.822 12.5573C12.745 12.6207 12.6725 12.6848 12.6197 12.7706C12.5232 12.9276 12.5186 13.1129 12.5808 13.2837C13.0591 14.5981 13.8653 15.6203 15.1883 16.1708C15.4 16.2589 15.6126 16.3614 15.8565 16.333C16.265 16.2853 16.3972 15.8372 16.6834 15.6032C16.9632 15.3744 17.3207 15.3714 17.6221 15.5621C17.9235 15.7528 18.2157 15.9576 18.5062 16.1646C18.7913 16.3677 19.0751 16.5665 19.3381 16.7981C19.5908 17.0207 19.6779 17.3128 19.5355 17.6151ZM17.1628 13.3317C17.0487 13.3338 17.0935 13.3315 17.1369 13.3303C16.9531 13.3238 16.8531 13.2156 16.8333 13.0397C16.8189 12.9111 16.8075 12.7808 16.7768 12.6558C16.7164 12.4094 16.5855 12.1811 16.3783 12.0302C16.2805 11.9589 16.1696 11.9069 16.0535 11.8734C15.906 11.8309 15.7528 11.8426 15.6056 11.8065C15.4458 11.7674 15.3574 11.6379 15.3825 11.488C15.4053 11.3515 15.5381 11.245 15.6872 11.2558C16.6191 11.3231 17.2852 11.8049 17.3802 12.902C17.3869 12.9794 17.3948 13.0612 17.3777 13.1352C17.3497 13.2556 17.2637 13.3183 17.1768 13.3297C17.1839 13.3298 17.1825 13.3304 17.1628 13.3317ZM16.5833 10.8224C16.2974 10.6824 15.9881 10.5954 15.6746 10.5435C15.5376 10.5209 15.3992 10.5071 15.2615 10.488C15.0947 10.4648 15.0057 10.3585 15.0136 10.1941C15.0209 10.0401 15.1335 9.92928 15.3014 9.93875C15.853 9.97009 16.3858 10.0893 16.8762 10.349C17.8735 10.8771 18.4432 11.7108 18.6095 12.8239C18.6171 12.8744 18.6291 12.9243 18.6329 12.975C18.6424 13.0999 18.6483 13.225 18.6579 13.3898C18.6539 13.4198 18.6518 13.4904 18.6343 13.5569C18.5705 13.7982 18.2047 13.8284 18.1204 13.5849C18.0955 13.5126 18.0917 13.4304 18.0916 13.3525C18.0907 12.8434 17.9801 12.3348 17.7233 11.8919C17.4594 11.4367 17.0562 11.054 16.5833 10.8224ZM19.6649 14.2627C19.4722 14.265 19.3855 14.1038 19.373 13.931C19.3482 13.5889 19.3311 13.2454 19.2839 12.9062C19.0351 11.1156 17.6073 9.63417 15.825 9.31628C15.5568 9.26843 15.2823 9.25585 15.0107 9.22735C14.8389 9.20931 14.614 9.19891 14.5759 8.98543C14.544 8.80644 14.6951 8.66392 14.8655 8.65477C14.9119 8.65227 14.9585 8.65438 15.005 8.65458C17.3133 8.71929 15.1459 8.65958 15.0112 8.65491C17.4121 8.72488 19.3833 10.3192 19.8061 12.6935C19.8781 13.0984 19.9038 13.5124 19.9359 13.9234C19.9493 14.0962 19.8514 14.2604 19.6649 14.2627Z" fill="#9640E0"/>
<path d="M5 0C2.23858 0 0 2.23858 0 5V25C0 27.7614 2.23858 30 5 30H25C27.7614 30 30 27.7614 30 25V5C30 2.23858 27.7614 0 25 0H5ZM24.4879 17.8251L24.4819 17.8488C24.0027 19.7861 21.8422 21.8649 19.8582 22.2974L19.8358 22.302C18.2315 22.6081 16.6155 22.7609 15 22.7609C14.5246 22.7609 14.0491 22.746 13.5739 22.7195L11.3828 24.997C10.8403 25.5619 9.88649 25.1774 9.88649 24.3947V22.2321C7.97648 21.6867 5.97688 19.7034 5.51747 17.8487L5.5122 17.825C4.91974 15.1194 4.91974 12.3757 5.5122 9.67018L5.51747 9.64648C5.99735 7.70915 8.15784 5.6303 10.1412 5.1978L10.1643 5.1932C13.3728 4.58099 16.6266 4.58099 19.8358 5.1932L19.8582 5.1978C21.8422 5.6303 24.0027 7.70915 24.4819 9.64648L24.4879 9.67018C25.0803 12.3758 25.0803 15.1195 24.4879 17.8251Z" fill="#9640E0"/>
</svg>
