<svg width="30" height="30" viewBox="0 0 30 30" fill="none" xmlns="http://www.w3.org/2000/svg"><path d="M15.014 6.275c-4.798 0-8.7 3.903-8.7 8.7 0 1.672.475 3.295 1.373 4.694l.216.337-.846 3.005 3.11-.8.32.196a8.683 8.683 0 004.527 1.269c4.797 0 8.7-3.903 8.7-8.7 0-4.798-3.903-8.701-8.7-8.701zm5.335 11.374l-.109.507a2.195 2.195 0 01-.955 1.394c-.622.398-1.428.593-2.454.303-3.181-.9-4.98-3.006-5.946-4.323-.966-1.316-1.339-2.633-1.097-3.708.162-.721.688-1.274 1.018-1.56a.823.823 0 01.585-.2l.68.037c.133.007.251.09.304.213l.99 2.317a.352.352 0 01-.057.369l-.862.997a.26.26 0 00-.033.291c1.136 2.187 3.205 3.054 3.823 3.27a.258.258 0 00.29-.085l.902-1.17c.1-.13.277-.173.426-.105l2.298 1.06c.15.069.231.232.197.393z" fill="#26D367"/><path d="M5 0a5 5 0 00-5 5v20a5 5 0 005 5h20a5 5 0 005-5V5a5 5 0 00-5-5H5zm10.014 25.453c-1.8 0-3.563-.461-5.123-1.336L4.51 25.503l1.47-5.22a10.445 10.445 0 01-1.443-5.308c0-5.777 4.7-10.478 10.477-10.478 5.778 0 10.478 4.7 10.478 10.478s-4.7 10.478-10.477 10.478z" fill="#26D367"/></svg>