<svg width="38" height="40" viewBox="0 0 38 40" fill="none" xmlns="http://www.w3.org/2000/svg"><path d="M37.333 4.667v-2A2.667 2.667 0 0034.667 0H6a2.667 2.667 0 00-2.667 2.667V4H2a2 2 0 100 4h1.333v26.667H.667a.667.667 0 00-.667.666v2A2.667 2.667 0 002.667 40h24a10.657 10.657 0 006.666-18.98V5.333h3.334a.667.667 0 00.666-.666zM1.333 6A.667.667 0 012 5.333h18v1.334H2A.667.667 0 011.333 6zm23.176-.667L25.843 6l-1.334.667h-3.176V5.333h3.176zM2.667 38.667a1.333 1.333 0 01-1.334-1.334V36h17.02a10.751 10.751 0 003.161 2.667H2.667zM36 29.333A9.333 9.333 0 1126.667 20 9.343 9.343 0 0136 29.333zm-9.333-10.666a10.647 10.647 0 00-9.224 16H4.667V8h20a.667.667 0 00.298-.07l2.666-1.333a.666.666 0 000-1.194L24.965 4.07a.667.667 0 00-.298-.07h-20V2.667A1.333 1.333 0 016 1.333h26.37A2.64 2.64 0 0032 2.667V20.11a10.589 10.589 0 00-5.333-1.443zM36 4h-2.667V2.667a1.333 1.333 0 012.667 0V4z" fill="#F2F2F2"/><path d="M24.781 26.505l-.942.943.942.943.943-.943-.943-.943zm3.771 3.771l-.943.943.943.943.943-.943-.943-.943zm.47-4.242l-5.656 5.656.943.943 5.656-5.656-.943-.943z" fill="#F2F2F2"/><path d="M26.667 21.333a8 8 0 108 8 8.009 8.009 0 00-8-8zm0 14.667a6.667 6.667 0 116.666-6.667A6.674 6.674 0 0126.667 36zM9.333 10H8v1.333h1.333V10zM30 10H10.667v1.333H30V10zm0 2.667H6.667V14H30v-1.333zm0 2.666H6.667v1.334H30v-1.334zM20 18H6.667v1.333H20V18zm-6.667 13.333H6.667v1.334h6.666v-1.334zm-6.666-8.666V28a.667.667 0 00.666.667h7.334v-1.334H8v-4h8.667V22H7.333a.666.666 0 00-.666.667zM36 8h-1.333v11.333H36V8zM2 10.667H.667v16H2v-16zM2 28H.667v1.333H2V28z" fill="#F2F2F2"/></svg>