<svg width="40" height="40" viewBox="0 0 40 40" fill="none" xmlns="http://www.w3.org/2000/svg"><path d="M7.073 12.21a.59.59 0 01.552.628l-.159 2.472a.59.59 0 01-.589.553H6.84a.59.59 0 01-.552-.628l.159-2.472a.593.593 0 01.627-.552zm11.042-3.1a.59.59 0 01.835 0l16.582 16.582a.59.59 0 010 .835l-9.005 9.005a.591.591 0 01-.835 0L9.11 18.952a.59.59 0 010-.836l9.005-9.005zm7.993 25.168l8.17-8.17-15.745-15.744-8.17 8.17 15.745 15.744z" fill="#E0E0E0"/><path d="M.536.536C1.788-.711 4.666.283 7.232 2.849c.561.56 1.07 1.172 1.52 1.826l9.186-.59a.583.583 0 01.456.172L39.827 25.69a.59.59 0 010 .835L26.526 39.827a.591.591 0 01-.836 0L4.256 18.393a.592.592 0 01-.172-.456l.59-9.182c-.653-.45-1.264-.96-1.825-1.521C.282 4.667-.711 1.789.536.536zm8.895 8.3a.422.422 0 10-.598.596.422.422 0 00.598-.597zm16.677 29.738l12.466-12.466L17.747 5.281l-8.31.534a5.46 5.46 0 01.637 2.026 1.597 1.597 0 01.193 2.426 1.606 1.606 0 01-2.69-.748 1.602 1.602 0 011.26-1.96 5.885 5.885 0 00-.702-1.661l-2.102.135-.752 11.714 20.827 20.827zM4.764 7.354l.123-1.915a.591.591 0 01.552-.551l1.915-.123c-.298-.379-.617-.74-.957-1.08C4.125 1.412 1.94.805 1.372 1.37c-.569.565.04 2.755 2.312 5.026.34.34.701.66 1.08.958z" fill="#E0E0E0"/><path d="M20.393 20.628a2.08 2.08 0 11-2.9.042 1.998 1.998 0 012.9-.042zm-2.214 2.214c.36.36.919.318 1.362-.125.46-.46.502-1.003.135-1.37-.343-.343-.911-.31-1.362.142-.45.451-.494.994-.135 1.353zm5.299-4.912l-1.747 9.734-.885-.886 1.746-9.735.886.886zm3.367 3.25a2.08 2.08 0 01-2.932 2.95 2.08 2.08 0 012.932-2.95zm-2.223 2.222c.343.343.912.31 1.362-.142.45-.45.493-.994.142-1.345-.359-.36-.919-.317-1.362.125-.46.46-.493 1.012-.142 1.362z" fill="#E0E0E0"/></svg>