<svg width="40" height="40" viewBox="0 0 40 40" fill="none" xmlns="http://www.w3.org/2000/svg"><path d="M26.667 2.667H28V4h-1.333V2.667zm-6.879 3.402l.942-.943.943.943-.942.942-.943-.942zM35.967 24.29l-6.321 3.65a2.626 2.626 0 00-1.147-.662l-9.082-2.433a3.35 3.35 0 00-1.458-.06L12 25.867v-1.2a.667.667 0 00-.667-.667H4.667a.667.667 0 00-.667.667v.666H.667A.667.667 0 000 26v12a.666.666 0 00.667.667H4v.666a.667.667 0 00.667.667h6.666a.667.667 0 00.667-.666V37.41l10.316 1.147a3.343 3.343 0 002.177-.513l14.14-9.134a2.642 2.642 0 001.334-2.31 2.667 2.667 0 00-4-2.31v-.002zM1.333 37.334V26.666H4v10.666H1.333zm9.334 1.333H5.333V25.333h5.334v13.334zm27.271-10.894l-14.17 9.152a2.014 2.014 0 01-1.305.308L12 36.07v-8.846l6.2-1.127c.29-.054.59-.042.875.035l9.081 2.433a1.333 1.333 0 11-.69 2.576l-6.627-1.774a.667.667 0 10-.345 1.287l6.624 1.775a2.667 2.667 0 003.267-1.886 2.644 2.644 0 00-.034-1.47l6.28-3.627a1.335 1.335 0 011.308 2.327z" fill="#F2F2F2"/><path d="M39.333 9.333h-3.28a9.29 9.29 0 00-.196-.473l2.321-2.322a.667.667 0 000-.943l-3.773-3.773a.667.667 0 00-.943 0l-2.321 2.321c-.16-.071-.318-.133-.474-.196V.667A.667.667 0 0030 0h-5.333A.667.667 0 0024 .667v3.28a9.33 9.33 0 00-.474.196l-2.321-2.321a.667.667 0 00-.943 0l-3.773 3.773a.667.667 0 000 .943l2.321 2.321c-.071.16-.133.318-.196.474h-3.28a.667.667 0 00-.667.667v5.333a.667.667 0 00.666.667h3.281c.06.157.125.315.196.474l-2.321 2.321a.666.666 0 000 .943l3.773 3.773a.667.667 0 00.943 0l2.321-2.321c.16.071.317.133.474.196v3.28a.667.667 0 00.667.667H30a.667.667 0 00.667-.666v-3.281c.156-.06.314-.125.474-.196l2.321 2.321a.686.686 0 00.943 0l3.773-3.773a.666.666 0 000-.943l-2.321-2.322c.071-.159.133-.316.196-.473h3.28a.667.667 0 00.667-.667V10a.666.666 0 00-.667-.667zm-.666 5.334H35.58a.666.666 0 00-.635.466 8.23 8.23 0 01-.488 1.184.667.667 0 00.125.77l2.182 2.18-2.83 2.83-2.183-2.182a.667.667 0 00-.769-.124 8.218 8.218 0 01-1.184.487.667.667 0 00-.467.635V24h-3.998v-3.087a.666.666 0 00-.466-.635 8.218 8.218 0 01-1.184-.487.666.666 0 00-.77.124l-2.18 2.182-2.83-2.83 2.182-2.182a.667.667 0 00.124-.77 8.218 8.218 0 01-.487-1.184.667.667 0 00-.635-.466H16v-3.998h3.087a.668.668 0 00.635-.467 8.14 8.14 0 01.487-1.184.666.666 0 00-.124-.77l-2.182-2.18 2.83-2.83 2.182 2.182a.667.667 0 00.77.125 8.22 8.22 0 011.182-.488.666.666 0 00.466-.635V1.333h4V4.42a.667.667 0 00.467.635c.407.132.803.295 1.184.488a.667.667 0 00.77-.125l2.18-2.182 2.83 2.83-2.182 2.183a.667.667 0 00-.125.769c.193.381.356.777.488 1.184a.666.666 0 00.635.467h3.087v3.998z" fill="#F2F2F2"/><path d="M27.333 7.333a5.333 5.333 0 105.334 5.334 5.34 5.34 0 00-5.334-5.334zm0 9.334a4 4 0 110-8 4 4 0 010 8zM8 38a2 2 0 100-4 2 2 0 000 4zm0-2.667a.666.666 0 110 1.333.666.666 0 010-1.333zM17.333 12h1.334v1.333h-1.334V12zm2.455 7.267l.942-.943.943.943-.942.942-.943-.942zm6.879 2.066H28v1.334h-1.333v-1.334zm6.319-2.065l.943-.943.942.943-.943.943-.942-.943zM36 12h1.333v1.333H36V12zm-3.013-5.93l.943-.943.943.943-.943.943-.943-.943z" fill="#F2F2F2"/></svg>