<svg width="42" height="40" viewBox="0 0 42 40" fill="none" xmlns="http://www.w3.org/2000/svg"><path d="M41.59 21.925a16.472 16.472 0 00-4.734-9.99 16.343 16.343 0 00-8.04-4.415V5.452c1.204-.3 2.1-1.39 2.1-2.685A2.77 2.77 0 0028.147 0h-5.86a2.77 2.77 0 00-2.767 2.767 2.77 2.77 0 002.1 2.685v2.074a16.342 16.342 0 00-8.016 4.409c-.5.5-.96 1.024-1.382 1.568a.784.784 0 00-.061-.003h-5.8a.814.814 0 100 1.628h4.754a16.282 16.282 0 00-1.444 3.128H.814a.814.814 0 000 1.628h8.398a16.548 16.548 0 00-.404 3.128h-3.6a.814.814 0 000 1.628h3.626c.069 1.053.238 2.101.508 3.128H4.07a.814.814 0 000 1.628h5.793a16.345 16.345 0 003.743 5.79A16.47 16.47 0 0025.218 40c3.176 0 6.312-.92 8.973-2.652a.814.814 0 10-.889-1.364c-5.824 3.793-13.623 2.973-18.546-1.95-5.775-5.775-5.775-15.172 0-20.948 5.776-5.775 15.173-5.775 20.949 0 4.915 4.916 5.74 12.709 1.96 18.53a.814.814 0 101.365.886 16.492 16.492 0 002.56-10.577zM21.149 2.767c0-.628.51-1.14 1.14-1.14h5.86a1.14 1.14 0 010 2.279h-5.861a1.14 1.14 0 01-1.14-1.139zm2.099 4.48V5.534h3.94v1.708a16.583 16.583 0 00-3.94.003z" fill="#F2F2F2"/><path d="M36.28 33.796a.818.818 0 00-.814.813.816.816 0 00.814.814.818.818 0 00.814-.814.82.82 0 00-.239-.575.821.821 0 00-.575-.238zM25.23 10.934c-6.962 0-12.626 5.664-12.626 12.626s5.664 12.626 12.626 12.626 12.626-5.664 12.626-12.626-5.664-12.626-12.626-12.626zm0 23.624c-6.064 0-10.998-4.934-10.998-10.998 0-6.064 4.934-10.998 10.998-10.998 6.064 0 10.998 4.934 10.998 10.998 0 6.064-4.934 10.998-10.998 10.998z" fill="#F2F2F2"/><path d="M30.38 17.26l-4.032 4.032a2.513 2.513 0 00-2.234 0l-1.804-1.804a.814.814 0 00-1.151 1.15l1.804 1.805a2.532 2.532 0 002.268 3.646 2.532 2.532 0 002.269-3.646l3.912-3.913.119-.118a.814.814 0 00-1.151-1.151zm-5.149 7.201a.902.902 0 010-1.802.902.902 0 010 1.802zm8.701-1.705h-.754a.814.814 0 000 1.628h.755a.814.814 0 000-1.628zm-16.649-.02h-.754a.814.814 0 000 1.628h.754a.814.814 0 100-1.628zm7.958-6.31c.45 0 .814-.364.814-.814v-.754a.814.814 0 10-1.628 0v.754c0 .45.364.814.814.814zm-.021 14.268a.814.814 0 00-.814.814v.754a.814.814 0 001.628 0v-.754a.814.814 0 00-.814-.814zM.814 27.768a.82.82 0 00-.576.238.82.82 0 00-.238.576.818.818 0 00.814.814.82.82 0 00.575-.239.82.82 0 00.239-.575.82.82 0 00-.239-.576.82.82 0 00-.575-.238z" fill="#F2F2F2"/></svg>