<svg width="41" height="40" viewBox="0 0 41 40" fill="none" xmlns="http://www.w3.org/2000/svg"><path d="M33.336 6.663a2 2 0 100-4 2 2 0 000 4zm0-2.667a.667.667 0 110 1.333.667.667 0 010-1.333zM12.668 6.663a2 2 0 100-4 2 2 0 000 4zm0-2.667a.667.667 0 110 1.334.667.667 0 010-1.334zm12.001 16.002h-.667v-1.667a1.667 1.667 0 00-3.333 0v1.667H4.667v-1.667a1.667 1.667 0 00-3.334 0v1.667H.667a.667.667 0 00-.667.667v18.668A.667.667 0 00.667 40h24.002a.667.667 0 00.667-.667V20.665a.667.667 0 00-.667-.667zm-2.667-1.667a.333.333 0 11.667 0v1.667h-.667v-1.667zm-19.335 0a.333.333 0 11.667 0v1.667h-.667v-1.667zm21.335 3v1.334H1.333V21.33h22.67zm0 2.667V36H1.333V24h22.67zM1.333 38.666v-1.333h22.67v1.333H1.332z" fill="#F2F2F2"/><path d="M7.334 34.666a2 2 0 002-2v-5.334a2 2 0 10-4 0v5.334a2 2 0 002 2zm-.667-7.334a.667.667 0 011.333 0v5.334a.667.667 0 01-1.333 0v-5.334zm6.001 7.334a2 2 0 002-2v-5.334a2 2 0 10-4 0v5.334a2 2 0 002 2zm-.667-7.334a.667.667 0 011.334 0v5.334a.667.667 0 01-1.334 0v-5.334zm6.001 7.334a2 2 0 002-2v-5.334a2 2 0 10-4 0v5.334a2 2 0 002 2zm-.667-7.334a.667.667 0 111.333 0v5.334a.667.667 0 01-1.333 0v-5.334z" fill="#F2F2F2"/><path d="M39.892 34.963l-2.667-4a.667.667 0 00-.554-.297V7.923a4.662 4.662 0 00-6.594-6.593H15.928a4.663 4.663 0 00-6.593 6.593v2.74h-.667a.667.667 0 00-.667.668v2.667a.667.667 0 00.667.666h.667v2c0 .177.07.347.195.472l1.334 1.333.942-.943-1.138-1.138v-1.724h4v1.724l-1.137 1.138.942.943 1.334-1.333a.667.667 0 00.195-.472v-2h.667a.667.667 0 00.666-.666V11.33a.667.667 0 00-.666-.667h-.667V7.997h14.001v22.669a.668.668 0 00-.554.296l-2.667 4a.671.671 0 00-.112.37v4.001a.667.667 0 00.666.667h12.002a.667.667 0 00.666-.667v-4a.67.67 0 00-.112-.37zM33.337 1.33a3.333 3.333 0 110 6.667 3.333 3.333 0 010-6.667zm-4.21 5.333H16.879a4.608 4.608 0 000-4h12.248a4.61 4.61 0 000 4zM12.668 1.33a3.333 3.333 0 110 6.667 3.333 3.333 0 010-6.667zm3.334 12H9.335v-1.333h6.667v1.334zm-5.334-2.666v-1.79a4.609 4.609 0 004 0v1.79h-4zm20.669-1.79a4.608 4.608 0 004 0v21.792h-4V8.874zm-.977 23.125h5.954l1.778 2.667h-9.51L30.36 32zm-2.357 6.668V36h10.668v2.666H28.003z" fill="#F2F2F2"/></svg>