<svg width="29" height="40" viewBox="0 0 29 40" fill="none" xmlns="http://www.w3.org/2000/svg"><path d="M24.384 26.39l-1.692-.363-.006-.002-4.06-.868c.028-.199.043-.4.044-.6v-1.885a8.614 8.614 0 003.976-7.253v-1.536h.928a.59.59 0 00.59-.59v-2.025a.59.59 0 00-.59-.591h-.427a9.097 9.097 0 00-7.009-8.745V.59a.59.59 0 00-.59-.591H12.51a.59.59 0 00-.591.59v1.342a9.098 9.098 0 00-7.009 8.745h-.426a.589.589 0 00-.591.59v2.026a.59.59 0 00.59.59h.928v1.536a8.613 8.613 0 003.976 7.253v1.885c.002.2.016.401.044.6l-4.06.868h-.004l-1.693.363A4.664 4.664 0 000 30.926v8.482A.59.59 0 00.59 40h26.877a.59.59 0 00.59-.59v-8.483a4.664 4.664 0 00-3.673-4.537zm-2.418-15.713h-2.79v-3.46a.591.591 0 00-1.181 0v3.46h-1.857V3.142a7.925 7.925 0 015.828 7.535zM13.1 1.18h1.857v9.496H13.1V1.18zm-1.181 1.96v7.536h-1.857v-3.46a.59.59 0 10-1.181 0v3.46h-2.79a7.924 7.924 0 015.828-7.535zm-6.845 8.717h17.909v.844H5.074v-.844zm1.52 3.561v-1.536h14.871v1.536a7.436 7.436 0 01-14.873 0h.001zm7.435 8.615a8.572 8.572 0 003.46-.726v1.249a3.46 3.46 0 11-6.92 0v-1.249c1.09.48 2.268.727 3.46.726zM1.18 30.927a3.477 3.477 0 012.74-3.382l.984-.211v11.485H1.18v-7.892zm4.905-3.846l3.646-.78a4.65 4.65 0 003.707 2.856v9.662H6.086V27.08zM14.62 38.82v-9.663a4.65 4.65 0 003.708-2.855l3.646.78V38.82H14.62zm12.257 0h-3.723V27.334l.983.211a3.477 3.477 0 012.74 3.382v7.892z" fill="#F2F2F2"/><path d="M25.441 32.847a.589.589 0 00-.59.59v2.112a.59.59 0 101.18 0v-2.112a.59.59 0 00-.59-.59zm-14.16-1.343H8.243a.59.59 0 100 1.181h3.038a.59.59 0 100-1.181z" fill="#F2F2F2"/></svg>