<svg width="15" height="15" viewBox="0 0 15 15" fill="none" xmlns="http://www.w3.org/2000/svg"><path d="M7.5 15a7.5 7.5 0 100-15 7.5 7.5 0 000 15z" fill="#F0F0F0"/><path d="M1.55 2.935a7.473 7.473 0 00-1.293 2.61H4.16l-2.61-2.61zm13.192 2.609a7.472 7.472 0 00-1.292-2.61l-2.61 2.61h3.902zM.257 9.457c.259.96.703 1.843 1.292 2.61l2.61-2.61H.257zM12.066 1.55A7.472 7.472 0 009.456.26v3.9l2.61-2.61zm-9.132 11.9a7.473 7.473 0 002.61 1.292V10.84l-2.61 2.61zM5.543.259a7.473 7.473 0 00-2.61 1.292l2.61 2.61V.258zm3.913 14.483a7.473 7.473 0 002.61-1.293l-2.61-2.61v3.902zm1.384-5.285l2.61 2.61a7.473 7.473 0 001.292-2.61H10.84z" fill="#0052B4"/><path d="M14.937 6.522H8.478V.063a7.575 7.575 0 00-1.956 0v6.459H.063a7.575 7.575 0 000 1.956h6.459v6.459a7.572 7.572 0 001.956 0V8.478h6.459a7.572 7.572 0 000-1.956z" fill="#D80027"/><path d="M9.457 9.457l3.346 3.347a7.45 7.45 0 00.441-.482L10.38 9.457h-.922zm-3.913 0l-3.347 3.347c.154.154.315.3.481.44l2.866-2.865v-.922zm-.001-3.914L2.197 2.196a7.52 7.52 0 00-.441.482L4.62 5.543h.922zm3.914.001l3.346-3.347a7.48 7.48 0 00-.481-.441L9.457 4.62v.923z" fill="#D80027"/></svg>