<svg width="15" height="15" viewBox="0 0 15 15" fill="none" xmlns="http://www.w3.org/2000/svg"><path d="M7.5 15a7.5 7.5 0 100-15 7.5 7.5 0 000 15z" fill="#F0F0F0"/><path d="M10.324 5.87H8.441L7.5 4.24l-.941 1.63H4.676l.941 1.63-.941 1.63h1.883l.941 1.631.941-1.63h1.883L9.383 7.5l.941-1.631zM8.657 7.5l-.579 1.002H6.922L6.344 7.5l.578-1h1.156l.579 1zM7.5 5.497l.215.373h-.43l.215-.373zM5.765 6.499h.43l-.215.372-.215-.372zm0 2.003l.216-.373.215.373h-.43zM7.5 9.503l-.215-.372h.43l-.215.372zm1.735-1.001h-.43l.215-.373.215.373zm-.43-2.003h.43l-.215.372-.216-.372zm3.363-4.869H2.831a7.538 7.538 0 00-1.73 1.957h12.798a7.538 7.538 0 00-1.73-1.956zM2.831 13.37h9.337a7.538 7.538 0 001.731-1.956H1.101a7.541 7.541 0 001.73 1.957z" fill="#0052B4"/></svg>