<svg width="31" height="30" viewBox="0 0 31 30" fill="none" xmlns="http://www.w3.org/2000/svg"><path d="M15.009 0C8.745 0 6.913.006 6.557.036 5.27.143 4.47.346 3.6.779a5.99 5.99 0 00-1.724 1.262C.924 3.03.347 4.245.138 5.691c-.101.7-.131.844-.137 4.428-.002 1.194 0 2.766 0 4.875 0 6.26.007 8.09.037 8.445.104 1.25.3 2.038.715 2.898a6.32 6.32 0 004.097 3.347c.618.16 1.302.247 2.179.288.371.016 4.158.028 7.948.028s7.579-.005 7.941-.023c1.016-.048 1.605-.127 2.258-.296a6.282 6.282 0 004.096-3.353c.407-.84.614-1.657.707-2.843.02-.258.03-4.38.03-8.495 0-4.116-.01-8.23-.03-8.488-.095-1.205-.302-2.015-.722-2.871a5.948 5.948 0 00-1.284-1.76C26.98.923 25.766.346 24.32.138 23.619.036 23.479.006 19.892 0H15.01z" fill="url(#paint0_radial)"/><path d="M15.009 0C8.745 0 6.913.006 6.557.036 5.27.143 4.47.346 3.6.779a5.99 5.99 0 00-1.724 1.262C.924 3.03.347 4.245.138 5.691c-.101.7-.131.844-.137 4.428-.002 1.194 0 2.766 0 4.875 0 6.26.007 8.09.037 8.445.104 1.25.3 2.038.715 2.898a6.32 6.32 0 004.097 3.347c.618.16 1.302.247 2.179.288.371.016 4.158.028 7.948.028s7.579-.005 7.941-.023c1.016-.048 1.605-.127 2.258-.296a6.282 6.282 0 004.096-3.353c.407-.84.614-1.657.707-2.843.02-.258.03-4.38.03-8.495 0-4.116-.01-8.23-.03-8.488-.095-1.205-.302-2.015-.722-2.871a5.948 5.948 0 00-1.284-1.76C26.98.923 25.766.346 24.32.138 23.619.036 23.479.006 19.892 0H15.01z" fill="url(#paint1_radial)"/><path d="M15.002 3.923c-3.008 0-3.386.014-4.568.067-1.179.054-1.984.241-2.688.515a5.424 5.424 0 00-1.963 1.277 5.438 5.438 0 00-1.278 1.963c-.275.704-.462 1.51-.515 2.688-.053 1.182-.067 1.56-.067 4.568 0 3.009.014 3.385.067 4.567.054 1.18.241 1.984.515 2.688a5.428 5.428 0 001.278 1.963 5.425 5.425 0 001.961 1.278c.705.274 1.51.461 2.69.515 1.181.054 1.558.067 4.567.067 3.008 0 3.385-.013 4.567-.067 1.179-.054 1.985-.24 2.69-.515a5.421 5.421 0 001.96-1.278 5.437 5.437 0 001.28-1.962c.272-.705.458-1.51.514-2.689.053-1.182.067-1.558.067-4.567 0-3.008-.014-3.386-.067-4.568-.056-1.179-.242-1.984-.515-2.688a5.436 5.436 0 00-1.278-1.963 5.414 5.414 0 00-1.962-1.277c-.706-.274-1.512-.46-2.691-.515-1.182-.054-1.558-.067-4.567-.067h.003zm-.994 1.997h.994c2.958 0 3.309.01 4.476.063 1.08.05 1.667.23 2.057.382.517.2.886.44 1.273.828.388.388.628.757.83 1.274.15.39.332.977.38 2.057.054 1.168.065 1.518.065 4.475 0 2.956-.011 3.307-.064 4.475-.05 1.08-.23 1.666-.382 2.056-.2.517-.441.885-.829 1.273a3.426 3.426 0 01-1.273.828c-.39.152-.976.332-2.056.382-1.168.053-1.52.064-4.477.064-2.958 0-3.309-.011-4.476-.064-1.08-.05-1.667-.23-2.057-.382a3.421 3.421 0 01-1.274-.829 3.433 3.433 0 01-.83-1.273c-.15-.39-.332-.976-.38-2.056-.054-1.168-.064-1.519-.064-4.477s.01-3.307.063-4.475c.05-1.08.23-1.666.382-2.057.2-.517.441-.886.829-1.274a3.438 3.438 0 011.274-.829c.39-.152.977-.332 2.057-.382 1.022-.046 1.418-.06 3.482-.062v.003zm6.907 1.84a1.33 1.33 0 100 2.658 1.33 1.33 0 000-2.66v.001zm-5.913 1.552a5.69 5.69 0 10.001 11.379 5.69 5.69 0 00-.001-11.379zm0 1.997a3.693 3.693 0 110 7.385 3.693 3.693 0 010-7.385z" fill="#fff"/><defs><radialGradient id="paint0_radial" cx="0" cy="0" r="1" gradientUnits="userSpaceOnUse" gradientTransform="matrix(0 -29.7322 27.6608 0 7.971 32.31)"><stop stop-color="#FD5"/><stop offset=".1" stop-color="#FD5"/><stop offset=".5" stop-color="#FF543E"/><stop offset="1" stop-color="#C837AB"/></radialGradient><radialGradient id="paint1_radial" cx="0" cy="0" r="1" gradientUnits="userSpaceOnUse" gradientTransform="matrix(2.60925 13.03196 -53.7317 10.7581 -5.027 2.161)"><stop stop-color="#3771C8"/><stop offset=".128" stop-color="#3771C8"/><stop offset="1" stop-color="#60F" stop-opacity="0"/></radialGradient></defs></svg>