<svg width="30" height="30" viewBox="0 0 30 30" fill="none" xmlns="http://www.w3.org/2000/svg"><path d="M20.818 9.868L9.814 16.693a.5.5 0 00-.214.573l1.476 4.757c.03.1.176.086.188-.018l.359-3.19a.5.5 0 01.166-.318l9.318-8.24c.223-.198-.036-.546-.289-.39z" fill="#229FD9"/><path d="M5 0a5 5 0 00-5 5v20a5 5 0 005 5h20a5 5 0 005-5V5a5 5 0 00-5-5H5zm20.007 7.795l-3.425 16.376a1.08 1.08 0 01-1.695.649l-5.171-3.796-2.636 2.69a.875.875 0 01-1.46-.349L8.716 17.33l-5.098-1.506c-.669-.197-.708-1.13-.058-1.383l20.061-7.818a1.032 1.032 0 011.385 1.173z" fill="#229FD9"/></svg>