<svg width="30" height="30" viewBox="0 0 30 30" fill="none" xmlns="http://www.w3.org/2000/svg"><path d="M19.49 6.937c-2.98-.567-6-.567-8.98 0-1.304.29-2.944 1.862-3.265 3.126a17.178 17.178 0 000 7.37c.32 1.264 1.96 2.835 3.264 3.125h.001c.058.012.1.062.1.121v3.583a.2.2 0 00.344.137l1.701-1.746 1.6-1.642a.122.122 0 01.09-.037 23.954 23.954 0 005.145-.416c1.304-.29 2.944-1.861 3.264-3.125a17.16 17.16 0 000-7.37c-.32-1.264-1.96-2.836-3.264-3.126zm.046 10.678c-.261.554-.64 1.014-1.188 1.308-.154.083-.338.11-.513.163-.2-.06-.391-.101-.569-.175-1.837-.762-3.528-1.746-4.868-3.254-.762-.857-1.358-1.825-1.862-2.85-.24-.485-.44-.99-.646-1.492-.187-.457.089-.93.379-1.274a2.988 2.988 0 011.003-.754c.296-.142.588-.06.805.191.468.543.898 1.114 1.246 1.744.214.387.155.86-.233 1.124-.094.064-.18.139-.268.211a.88.88 0 00-.202.214.584.584 0 00-.04.513c.48 1.314 1.285 2.336 2.608 2.887.212.088.425.19.668.162.409-.048.541-.496.827-.73.28-.229.638-.232.94-.04.3.19.593.395.883.602.285.203.57.402.832.633.253.223.34.515.197.817zm-2.373-4.283a.376.376 0 01-.026-.002c-.184-.006-.284-.114-.304-.29-.014-.129-.025-.26-.056-.384a1.08 1.08 0 00-.399-.626 1.04 1.04 0 00-.325-.157c-.147-.042-.3-.03-.447-.066-.16-.04-.249-.17-.223-.319a.289.289 0 01.304-.232c.932.067 1.598.549 1.693 1.646.007.077.015.16-.002.233a.24.24 0 01-.215.197zm-.58-2.51a3.28 3.28 0 00-.908-.278c-.137-.023-.276-.037-.414-.056-.166-.023-.255-.13-.247-.294a.258.258 0 01.287-.255c.552.031 1.085.15 1.575.41.997.528 1.567 1.362 1.733 2.475.008.05.02.1.024.151.01.125.015.25.025.415-.004.03-.006.1-.024.167-.064.241-.43.271-.514.028a.727.727 0 01-.028-.233 2.909 2.909 0 00-.369-1.46 2.718 2.718 0 00-1.14-1.07zm3.082 3.44c-.193.003-.28-.158-.292-.331-.025-.342-.042-.686-.09-1.025-.248-1.79-1.676-3.272-3.458-3.59-.268-.048-.543-.06-.814-.089-.172-.018-.397-.028-.435-.242-.032-.179.12-.321.29-.33.046-.003.093 0 .139 0 2.308.064.14.005.006 0 2.401.07 4.372 1.664 4.795 4.039.072.404.098.818.13 1.23.013.172-.085.336-.271.339z" fill="#9640E0"/><path d="M5 0a5 5 0 00-5 5v20a5 5 0 005 5h20a5 5 0 005-5V5a5 5 0 00-5-5H5zm19.488 17.825l-.006.024c-.48 1.937-2.64 4.016-4.624 4.448l-.022.005a25.778 25.778 0 01-6.262.418l-2.191 2.277c-.543.565-1.497.18-1.497-.602v-2.163c-1.91-.545-3.91-2.529-4.369-4.383l-.005-.024a18.93 18.93 0 010-8.155l.005-.024c.48-1.937 2.64-4.016 4.624-4.448l.023-.005a25.694 25.694 0 019.672 0l.022.005c1.984.432 4.145 2.511 4.624 4.448l.006.024c.592 2.706.592 5.45 0 8.155z" fill="#9640E0"/></svg>